<?xml version="1.0" encoding="UTF-8" standalone="no"?>
<!-- Generator: Adobe Illustrator 20.1.0, SVG Export Plug-In . SVG Version: 6.00 Build 0)  -->

<svg
   xmlns:dc="http://purl.org/dc/elements/1.1/"
   xmlns:cc="http://creativecommons.org/ns#"
   xmlns:rdf="http://www.w3.org/1999/02/22-rdf-syntax-ns#"
   xmlns:svg="http://www.w3.org/2000/svg"
   xmlns="http://www.w3.org/2000/svg"
   xmlns:sodipodi="http://sodipodi.sourceforge.net/DTD/sodipodi-0.dtd"
   xmlns:inkscape="http://www.inkscape.org/namespaces/inkscape"
   version="1.1"
   id="Laag_1"
   x="0px"
   y="0px"
   viewBox="0 0 285 39"
   style="enable-background:new 0 0 285 39;"
   xml:space="preserve"
   inkscape:version="0.91 r13725"
   sodipodi:docname="facebook.svg"><metadata
     id="metadata57"><rdf:RDF><cc:Work
         rdf:about=""><dc:format>image/svg+xml</dc:format><dc:type
           rdf:resource="http://purl.org/dc/dcmitype/StillImage" /><dc:title></dc:title></cc:Work></rdf:RDF></metadata><defs
     id="defs55" /><sodipodi:namedview
     pagecolor="#ffffff"
     bordercolor="#666666"
     borderopacity="1"
     objecttolerance="10"
     gridtolerance="10"
     guidetolerance="10"
     inkscape:pageopacity="0"
     inkscape:pageshadow="2"
     inkscape:window-width="640"
     inkscape:window-height="480"
     id="namedview53"
     showgrid="false"
     inkscape:zoom="1.2561404"
     inkscape:cx="142.5"
     inkscape:cy="19.5"
     inkscape:window-x="913"
     inkscape:window-y="323"
     inkscape:window-maximized="0"
     inkscape:current-layer="Laag_1" /><style
     type="text/css"
     id="style3">
	.st0{fill:#3E6AAF;}
	.st1{fill:#FFFFFF;}
</style><g
     id="g5"><g
       id="g7"><path
         class="st0"
         d="M283,19.6c0,9.1-7.4,16.4-16.4,16.4H19.4C10.4,36,3,28.6,3,19.6v-0.1C3,10.4,10.4,3,19.4,3h247.1    c9.1,0,16.4,7.4,16.4,16.4V19.6z"
         id="path9" /></g><g
       id="g11"><path
         class="st1"
         d="M47.8,25.5V12.6c0-0.6,0.1-1,0.4-1.3s0.6-0.5,1.1-0.5s0.8,0.1,1.1,0.4s0.4,0.7,0.4,1.3v12.8    c0,0.6-0.1,1-0.4,1.3c-0.3,0.3-0.6,0.4-1.1,0.4c-0.4,0-0.8-0.2-1.1-0.5S47.8,26,47.8,25.5z"
         id="path13" /><path
         class="st1"
         d="M55.4,13.9c-0.4,0-0.8-0.1-1.1-0.4s-0.4-0.6-0.4-1.1c0-0.4,0.1-0.8,0.4-1c0.3-0.3,0.6-0.4,1-0.4    c0.4,0,0.7,0.1,1,0.4c0.3,0.2,0.4,0.6,0.4,1.1c0,0.5-0.1,0.8-0.4,1.1S55.8,13.9,55.4,13.9z M56.9,16.9v8.5c0,0.6-0.1,1-0.4,1.3    c-0.3,0.3-0.6,0.5-1.1,0.5s-0.8-0.2-1.1-0.5s-0.4-0.8-0.4-1.3V17c0-0.6,0.1-1,0.4-1.3s0.6-0.4,1.1-0.4s0.8,0.1,1.1,0.4    S56.9,16.4,56.9,16.9z"
         id="path15" /><path
         class="st1"
         d="M67.4,25.9l-2.6-4.3l-1.6,1.5v2.3c0,0.6-0.1,1-0.4,1.3c-0.3,0.3-0.6,0.5-1,0.5c-0.5,0-0.8-0.2-1.1-0.5    c-0.3-0.3-0.4-0.7-0.4-1.3V12.9c0-0.7,0.1-1.2,0.4-1.5c0.3-0.3,0.6-0.5,1.1-0.5c0.5,0,0.8,0.2,1.1,0.5s0.4,0.8,0.4,1.4v7.2    l3.3-3.5c0.4-0.4,0.7-0.7,0.9-0.9s0.5-0.2,0.8-0.2c0.4,0,0.7,0.1,0.9,0.4s0.4,0.5,0.4,0.9c0,0.4-0.4,1-1.2,1.7l-1.6,1.4l3,4.8    c0.2,0.4,0.4,0.6,0.5,0.8c0.1,0.2,0.1,0.4,0.1,0.5c0,0.5-0.1,0.8-0.4,1.1s-0.6,0.4-1,0.4c-0.4,0-0.6-0.1-0.8-0.3    C68,26.8,67.7,26.4,67.4,25.9z"
         id="path17" /><path
         class="st1"
         d="M80.2,22h-5.8c0,0.7,0.1,1.3,0.4,1.8c0.3,0.5,0.6,0.9,1,1.2c0.4,0.3,0.9,0.4,1.4,0.4c0.4,0,0.7,0,1-0.1    c0.3-0.1,0.6-0.2,0.8-0.4c0.3-0.2,0.5-0.4,0.8-0.6c0.2-0.2,0.5-0.5,0.9-0.8c0.2-0.1,0.4-0.2,0.6-0.2c0.3,0,0.5,0.1,0.7,0.2    c0.2,0.2,0.3,0.4,0.3,0.7c0,0.3-0.1,0.6-0.3,0.9s-0.5,0.7-0.9,1s-1,0.6-1.6,0.8s-1.4,0.3-2.2,0.3c-1.9,0-3.4-0.5-4.4-1.6    s-1.6-2.5-1.6-4.4c0-0.9,0.1-1.7,0.4-2.4c0.3-0.7,0.6-1.4,1.1-1.9s1.1-0.9,1.8-1.2c0.7-0.3,1.5-0.4,2.4-0.4c1.2,0,2.1,0.2,3,0.7    c0.8,0.5,1.4,1.1,1.9,1.9c0.4,0.8,0.6,1.6,0.6,2.4c0,0.7-0.2,1.2-0.6,1.4C81.6,21.9,81,22,80.2,22z M74.5,20.3h5.4    c-0.1-1-0.3-1.8-0.8-2.3s-1.1-0.8-1.9-0.8c-0.7,0-1.3,0.3-1.8,0.8S74.6,19.3,74.5,20.3z"
         id="path19" /><path
         class="st1"
         d="M102,21.2c0,0.9-0.1,1.7-0.4,2.4c-0.3,0.7-0.7,1.4-1.2,1.9c-0.5,0.5-1.1,0.9-1.9,1.2    c-0.7,0.3-1.5,0.4-2.4,0.4c-0.9,0-1.7-0.1-2.4-0.4c-0.7-0.3-1.3-0.7-1.9-1.2c-0.5-0.5-0.9-1.2-1.2-1.9c-0.3-0.7-0.4-1.5-0.4-2.4    c0-0.9,0.1-1.7,0.4-2.5s0.7-1.4,1.2-1.9c0.5-0.5,1.1-0.9,1.9-1.2c0.7-0.3,1.5-0.4,2.4-0.4c0.9,0,1.7,0.1,2.4,0.4    c0.7,0.3,1.4,0.7,1.9,1.2s0.9,1.2,1.2,1.9C101.8,19.5,102,20.4,102,21.2z M99,21.2c0-1.2-0.3-2.1-0.8-2.8c-0.5-0.7-1.2-1-2.1-1    c-0.6,0-1.1,0.1-1.5,0.4c-0.4,0.3-0.8,0.7-1,1.3c-0.2,0.6-0.4,1.3-0.4,2c0,0.8,0.1,1.4,0.4,2c0.2,0.6,0.6,1,1,1.3    c0.4,0.3,1,0.5,1.5,0.5c0.9,0,1.6-0.3,2.1-1C98.7,23.4,99,22.4,99,21.2z"
         id="path21" /><path
         class="st1"
         d="M107.1,16.9v0.4c0.5-0.7,1.1-1.2,1.7-1.5c0.6-0.3,1.3-0.5,2.1-0.5c0.8,0,1.5,0.2,2.1,0.5    c0.6,0.3,1.1,0.8,1.4,1.4c0.2,0.4,0.3,0.8,0.4,1.2c0.1,0.4,0.1,1,0.1,1.6v5.5c0,0.6-0.1,1-0.4,1.3c-0.3,0.3-0.6,0.5-1.1,0.5    c-0.4,0-0.8-0.2-1.1-0.5c-0.3-0.3-0.4-0.8-0.4-1.3v-4.9c0-1-0.1-1.7-0.4-2.2c-0.3-0.5-0.8-0.8-1.6-0.8c-0.5,0-1,0.2-1.4,0.5    c-0.4,0.3-0.8,0.7-1,1.3c-0.1,0.4-0.2,1.3-0.2,2.5v3.7c0,0.6-0.1,1-0.4,1.3c-0.3,0.3-0.6,0.4-1.1,0.4c-0.4,0-0.8-0.2-1-0.5    s-0.4-0.8-0.4-1.3v-8.5c0-0.6,0.1-1,0.4-1.3c0.2-0.3,0.6-0.4,1-0.4c0.3,0,0.5,0.1,0.7,0.2c0.2,0.1,0.4,0.3,0.5,0.6    C107,16.2,107.1,16.5,107.1,16.9z"
         id="path23" /><path
         class="st1"
         d="M127.4,23.4c0,0.8-0.2,1.5-0.6,2.1s-1,1-1.8,1.3c-0.8,0.3-1.7,0.4-2.8,0.4c-1.1,0-2-0.2-2.7-0.5    s-1.3-0.7-1.7-1.2c-0.4-0.5-0.5-1-0.5-1.5c0-0.3,0.1-0.6,0.3-0.8c0.2-0.2,0.5-0.3,0.9-0.3c0.3,0,0.5,0.1,0.7,0.2s0.3,0.4,0.5,0.6    c0.3,0.5,0.7,0.9,1.1,1.2c0.4,0.3,1,0.4,1.7,0.4c0.6,0,1.1-0.1,1.5-0.4c0.4-0.3,0.6-0.6,0.6-0.9c0-0.5-0.2-0.9-0.6-1.1    c-0.4-0.2-1-0.5-1.9-0.7c-1-0.3-1.8-0.5-2.5-0.8c-0.6-0.3-1.1-0.6-1.5-1.1c-0.4-0.5-0.6-1-0.6-1.7c0-0.6,0.2-1.2,0.5-1.7    s0.9-0.9,1.6-1.3c0.7-0.3,1.5-0.5,2.5-0.5c0.8,0,1.5,0.1,2.1,0.2s1.1,0.4,1.5,0.6c0.4,0.3,0.7,0.6,0.9,0.9c0.2,0.3,0.3,0.6,0.3,1    c0,0.3-0.1,0.6-0.3,0.8c-0.2,0.2-0.6,0.3-1,0.3c-0.3,0-0.6-0.1-0.8-0.3c-0.2-0.2-0.5-0.4-0.7-0.8c-0.2-0.3-0.5-0.5-0.8-0.7    c-0.3-0.2-0.7-0.3-1.2-0.3c-0.5,0-1,0.1-1.3,0.3c-0.4,0.2-0.5,0.5-0.5,0.8c0,0.3,0.1,0.6,0.4,0.8c0.3,0.2,0.6,0.4,1,0.5    c0.4,0.1,1,0.3,1.8,0.5c0.9,0.2,1.7,0.5,2.2,0.8c0.6,0.3,1,0.7,1.3,1.1S127.4,22.8,127.4,23.4z"
         id="path25" /><path
         class="st1"
         d="M146.7,21.2c0,0.9-0.1,1.7-0.4,2.4c-0.3,0.7-0.7,1.4-1.2,1.9c-0.5,0.5-1.1,0.9-1.9,1.2    c-0.7,0.3-1.5,0.4-2.4,0.4c-0.9,0-1.7-0.1-2.4-0.4c-0.7-0.3-1.3-0.7-1.9-1.2c-0.5-0.5-0.9-1.2-1.2-1.9c-0.3-0.7-0.4-1.5-0.4-2.4    c0-0.9,0.1-1.7,0.4-2.5s0.7-1.4,1.2-1.9c0.5-0.5,1.1-0.9,1.9-1.2c0.7-0.3,1.5-0.4,2.4-0.4c0.9,0,1.7,0.1,2.4,0.4s1.4,0.7,1.9,1.2    c0.5,0.5,0.9,1.2,1.2,1.9S146.7,20.4,146.7,21.2z M143.8,21.2c0-1.2-0.3-2.1-0.8-2.8c-0.5-0.7-1.2-1-2.1-1c-0.6,0-1.1,0.1-1.5,0.4    c-0.4,0.3-0.8,0.7-1,1.3c-0.2,0.6-0.4,1.3-0.4,2c0,0.8,0.1,1.4,0.4,2c0.2,0.6,0.6,1,1,1.3c0.4,0.3,1,0.5,1.5,0.5    c0.9,0,1.6-0.3,2.1-1C143.5,23.4,143.8,22.4,143.8,21.2z"
         id="path27" /><path
         class="st1"
         d="M151.9,16.9v0.4c0.6-0.7,1.1-1.2,1.7-1.5s1.3-0.5,2-0.5c0.9,0,1.7,0.2,2.5,0.7s1.4,1.2,1.8,2.1    c0.4,0.9,0.7,2,0.7,3.2c0,0.9-0.1,1.7-0.4,2.5s-0.6,1.4-1.1,1.9c-0.4,0.5-1,0.9-1.6,1.2s-1.3,0.4-2,0.4c-0.8,0-1.6-0.2-2.1-0.5    s-1.1-0.8-1.6-1.5v4.4c0,1.3-0.5,1.9-1.4,1.9c-0.6,0-0.9-0.2-1.1-0.5c-0.2-0.3-0.3-0.8-0.3-1.5V16.9c0-0.6,0.1-1,0.4-1.3    c0.2-0.3,0.6-0.4,1-0.4c0.4,0,0.8,0.1,1,0.4C151.7,16,151.9,16.4,151.9,16.9z M157.7,21.2c0-0.8-0.1-1.4-0.4-2    c-0.2-0.6-0.6-1-1-1.3s-0.9-0.4-1.4-0.4c-0.8,0-1.5,0.3-2.1,1c-0.6,0.6-0.8,1.6-0.8,2.8c0,1.2,0.3,2.1,0.8,2.7    c0.6,0.7,1.2,1,2.1,1c0.5,0,0.9-0.1,1.4-0.4c0.4-0.3,0.8-0.7,1-1.3C157.5,22.7,157.7,22,157.7,21.2z"
         id="path29" /><path
         class="st1"
         d="M168.5,15.5h0.7v-0.9c0-0.9,0.1-1.7,0.4-2.2s0.6-0.9,1.2-1.2c0.6-0.2,1.3-0.4,2.3-0.4c1.7,0,2.6,0.4,2.6,1.3    c0,0.3-0.1,0.5-0.3,0.7c-0.2,0.2-0.4,0.3-0.6,0.3c-0.1,0-0.3,0-0.6-0.1c-0.3,0-0.5-0.1-0.7-0.1c-0.5,0-0.9,0.2-1,0.5    c-0.2,0.3-0.2,0.8-0.2,1.3v0.7h0.7c1.1,0,1.7,0.3,1.7,1c0,0.5-0.2,0.8-0.4,0.9c-0.3,0.1-0.7,0.2-1.2,0.2h-0.7v7.8    c0,0.6-0.1,1-0.4,1.3c-0.3,0.3-0.6,0.5-1.1,0.5c-0.4,0-0.8-0.2-1-0.5c-0.3-0.3-0.4-0.8-0.4-1.3v-7.8h-0.8c-0.4,0-0.8-0.1-1-0.3    s-0.4-0.5-0.4-0.8C167,15.9,167.5,15.5,168.5,15.5z"
         id="path31" /><path
         class="st1"
         d="M183.4,25.6c-0.7,0.6-1.4,1-2.1,1.2s-1.4,0.4-2.2,0.4c-0.8,0-1.4-0.1-2-0.4c-0.6-0.3-1-0.7-1.3-1.2    c-0.3-0.5-0.5-1.1-0.5-1.7c0-0.8,0.3-1.5,0.8-2.1c0.5-0.6,1.2-1,2.1-1.1c0.2,0,0.7-0.1,1.4-0.3c0.7-0.2,1.4-0.3,1.9-0.4    c0.5-0.1,1.1-0.3,1.7-0.5c0-0.8-0.2-1.4-0.5-1.7s-0.9-0.5-1.7-0.5c-0.8,0-1.3,0.1-1.7,0.3s-0.7,0.5-1,0.9    c-0.3,0.4-0.5,0.7-0.6,0.8c-0.1,0.1-0.4,0.2-0.7,0.2c-0.3,0-0.6-0.1-0.9-0.3c-0.2-0.2-0.4-0.5-0.4-0.8c0-0.5,0.2-1,0.6-1.5    c0.4-0.5,0.9-0.9,1.7-1.2s1.7-0.5,2.9-0.5c1.3,0,2.3,0.2,3.1,0.5s1.3,0.8,1.6,1.5c0.3,0.7,0.5,1.5,0.5,2.6c0,0.7,0,1.3,0,1.8    c0,0.5,0,1,0,1.6c0,0.6,0.1,1.1,0.3,1.7c0.2,0.6,0.3,1,0.3,1.2c0,0.3-0.1,0.6-0.4,0.8c-0.3,0.2-0.6,0.4-1,0.4    c-0.3,0-0.6-0.1-0.9-0.4S183.7,26.1,183.4,25.6z M183.2,21.3c-0.4,0.2-1.1,0.3-1.9,0.5c-0.8,0.2-1.4,0.3-1.7,0.4    c-0.3,0.1-0.6,0.2-0.9,0.5s-0.4,0.6-0.4,1c0,0.4,0.2,0.8,0.5,1.1c0.3,0.3,0.8,0.5,1.3,0.5c0.6,0,1.1-0.1,1.6-0.4    c0.5-0.3,0.9-0.6,1.1-1c0.3-0.4,0.4-1.2,0.4-2.2V21.3z"
         id="path33" /><path
         class="st1"
         d="M199.8,23.6c0,0.4-0.1,0.8-0.3,1.2c-0.2,0.4-0.6,0.8-1,1.2c-0.5,0.4-1,0.7-1.7,0.9c-0.7,0.2-1.5,0.3-2.3,0.3    c-1.8,0-3.2-0.5-4.3-1.6c-1-1.1-1.5-2.5-1.5-4.3c0-1.2,0.2-2.3,0.7-3.2c0.5-0.9,1.1-1.6,2-2.2s1.9-0.8,3.2-0.8    c0.8,0,1.5,0.1,2.1,0.3c0.6,0.2,1.2,0.5,1.6,0.9c0.4,0.4,0.8,0.7,1,1.1c0.2,0.4,0.4,0.8,0.4,1.1c0,0.4-0.1,0.7-0.4,0.9    c-0.3,0.2-0.6,0.4-1,0.4c-0.2,0-0.4-0.1-0.6-0.2c-0.2-0.1-0.3-0.3-0.5-0.6c-0.4-0.5-0.7-1-1.1-1.2c-0.4-0.3-0.9-0.4-1.5-0.4    c-0.9,0-1.6,0.3-2.1,1c-0.5,0.7-0.8,1.6-0.8,2.8c0,0.6,0.1,1.1,0.2,1.5c0.1,0.5,0.3,0.9,0.6,1.2c0.3,0.3,0.6,0.6,0.9,0.7    c0.4,0.2,0.8,0.3,1.2,0.3c0.6,0,1.1-0.1,1.5-0.4s0.8-0.7,1.1-1.3c0.2-0.3,0.4-0.6,0.6-0.8s0.5-0.3,0.8-0.3c0.4,0,0.7,0.1,0.9,0.4    S199.8,23.3,199.8,23.6z"
         id="path35" /><path
         class="st1"
         d="M210.7,22H205c0,0.7,0.1,1.3,0.4,1.8c0.3,0.5,0.6,0.9,1,1.2c0.4,0.3,0.9,0.4,1.4,0.4c0.4,0,0.7,0,1-0.1    c0.3-0.1,0.6-0.2,0.8-0.4c0.3-0.2,0.5-0.4,0.8-0.6c0.2-0.2,0.5-0.5,0.9-0.8c0.2-0.1,0.4-0.2,0.6-0.2c0.3,0,0.5,0.1,0.7,0.2    c0.2,0.2,0.3,0.4,0.3,0.7c0,0.3-0.1,0.6-0.3,0.9c-0.2,0.4-0.5,0.7-0.9,1s-1,0.6-1.6,0.8c-0.6,0.2-1.4,0.3-2.2,0.3    c-1.9,0-3.4-0.5-4.4-1.6s-1.6-2.5-1.6-4.4c0-0.9,0.1-1.7,0.4-2.4c0.3-0.7,0.6-1.4,1.1-1.9c0.5-0.5,1.1-0.9,1.8-1.2    c0.7-0.3,1.5-0.4,2.4-0.4c1.2,0,2.1,0.2,3,0.7c0.8,0.5,1.4,1.1,1.9,1.9c0.4,0.8,0.6,1.6,0.6,2.4c0,0.7-0.2,1.2-0.6,1.4    C212.1,21.9,211.5,22,210.7,22z M205,20.3h5.4c-0.1-1-0.3-1.8-0.8-2.3c-0.5-0.5-1.1-0.8-1.9-0.8c-0.7,0-1.3,0.3-1.8,0.8    C205.4,18.5,205.1,19.3,205,20.3z"
         id="path37" /><path
         class="st1"
         d="M218.2,12.5V17c0.6-0.6,1.1-1,1.7-1.3c0.6-0.3,1.3-0.5,2.1-0.5c1,0,1.8,0.2,2.6,0.7c0.7,0.5,1.3,1.1,1.7,2    s0.6,1.9,0.6,3.1c0,0.9-0.1,1.7-0.3,2.5c-0.2,0.7-0.6,1.4-1,1.9c-0.4,0.5-1,1-1.6,1.3c-0.6,0.3-1.3,0.4-2,0.4    c-0.5,0-0.9-0.1-1.3-0.2c-0.4-0.1-0.7-0.3-1-0.4s-0.5-0.4-0.7-0.5s-0.5-0.5-0.8-0.8v0.3c0,0.6-0.1,1-0.4,1.3s-0.6,0.4-1,0.4    c-0.4,0-0.8-0.1-1-0.4c-0.2-0.3-0.4-0.7-0.4-1.3V12.7c0-0.6,0.1-1.1,0.4-1.4c0.2-0.3,0.6-0.5,1-0.5c0.5,0,0.8,0.1,1,0.4    S218.2,12,218.2,12.5z M218.3,21.3c0,1.2,0.3,2.1,0.8,2.7c0.5,0.6,1.2,0.9,2.1,0.9c0.7,0,1.4-0.3,1.9-1c0.5-0.6,0.8-1.6,0.8-2.8    c0-0.8-0.1-1.4-0.3-2c-0.2-0.6-0.5-1-1-1.3c-0.4-0.3-0.9-0.5-1.4-0.5c-0.6,0-1.1,0.2-1.5,0.5c-0.4,0.3-0.8,0.8-1,1.3    C218.5,19.8,218.3,20.5,218.3,21.3z"
         id="path39" /><path
         class="st1"
         d="M240.5,21.2c0,0.9-0.1,1.7-0.4,2.4c-0.3,0.7-0.7,1.4-1.2,1.9c-0.5,0.5-1.1,0.9-1.9,1.2    c-0.7,0.3-1.5,0.4-2.4,0.4c-0.9,0-1.7-0.1-2.4-0.4c-0.7-0.3-1.3-0.7-1.9-1.2c-0.5-0.5-0.9-1.2-1.2-1.9c-0.3-0.7-0.4-1.5-0.4-2.4    c0-0.9,0.1-1.7,0.4-2.5c0.3-0.7,0.7-1.4,1.2-1.9s1.1-0.9,1.9-1.2c0.7-0.3,1.5-0.4,2.4-0.4c0.9,0,1.7,0.1,2.4,0.4s1.4,0.7,1.9,1.2    c0.5,0.5,0.9,1.2,1.2,1.9S240.5,20.4,240.5,21.2z M237.5,21.2c0-1.2-0.3-2.1-0.8-2.8c-0.5-0.7-1.2-1-2.1-1c-0.6,0-1.1,0.1-1.5,0.4    c-0.4,0.3-0.8,0.7-1,1.3c-0.2,0.6-0.4,1.3-0.4,2c0,0.8,0.1,1.4,0.4,2c0.2,0.6,0.6,1,1,1.3c0.4,0.3,1,0.5,1.5,0.5    c0.9,0,1.6-0.3,2.1-1C237.3,23.4,237.5,22.4,237.5,21.2z"
         id="path41" /><path
         class="st1"
         d="M254,21.2c0,0.9-0.1,1.7-0.4,2.4c-0.3,0.7-0.7,1.4-1.2,1.9c-0.5,0.5-1.1,0.9-1.9,1.2    c-0.7,0.3-1.5,0.4-2.4,0.4c-0.9,0-1.7-0.1-2.4-0.4c-0.7-0.3-1.3-0.7-1.9-1.2c-0.5-0.5-0.9-1.2-1.2-1.9c-0.3-0.7-0.4-1.5-0.4-2.4    c0-0.9,0.1-1.7,0.4-2.5c0.3-0.7,0.7-1.4,1.2-1.9s1.1-0.9,1.9-1.2c0.7-0.3,1.5-0.4,2.4-0.4c0.9,0,1.7,0.1,2.4,0.4s1.4,0.7,1.9,1.2    c0.5,0.5,0.9,1.2,1.2,1.9S254,20.4,254,21.2z M251,21.2c0-1.2-0.3-2.1-0.8-2.8c-0.5-0.7-1.2-1-2.1-1c-0.6,0-1.1,0.1-1.5,0.4    c-0.4,0.3-0.8,0.7-1,1.3c-0.2,0.6-0.4,1.3-0.4,2c0,0.8,0.1,1.4,0.4,2c0.2,0.6,0.6,1,1,1.3c0.4,0.3,1,0.5,1.5,0.5    c0.9,0,1.6-0.3,2.1-1C250.8,23.4,251,22.4,251,21.2z"
         id="path43" /><path
         class="st1"
         d="M263.8,25.9l-2.6-4.3l-1.6,1.5v2.3c0,0.6-0.1,1-0.4,1.3c-0.3,0.3-0.6,0.5-1,0.5c-0.5,0-0.8-0.2-1.1-0.5    c-0.3-0.3-0.4-0.7-0.4-1.3V12.9c0-0.7,0.1-1.2,0.4-1.5c0.3-0.3,0.6-0.5,1.1-0.5c0.5,0,0.8,0.2,1.1,0.5s0.4,0.8,0.4,1.4v7.2    l3.3-3.5c0.4-0.4,0.7-0.7,0.9-0.9c0.2-0.2,0.5-0.2,0.8-0.2c0.4,0,0.7,0.1,0.9,0.4s0.4,0.5,0.4,0.9c0,0.4-0.4,1-1.2,1.7l-1.6,1.4    l3,4.8c0.2,0.4,0.4,0.6,0.5,0.8c0.1,0.2,0.1,0.4,0.1,0.5c0,0.5-0.1,0.8-0.4,1.1c-0.3,0.3-0.6,0.4-1,0.4c-0.4,0-0.6-0.1-0.8-0.3    C264.4,26.8,264.1,26.4,263.8,25.9z"
         id="path45" /></g><g
       id="g47"><g
         id="g49"><path
           class="st1"
           d="M18.3,9c6.1,0,12.2,0,18.3,0c0,0,0,0,0.1,0c0.5,0.1,1.1,0.5,1.1,1c0,0.1,0.2,0.1,0.2,0.2     c0,5.9,0,11.8,0,17.6c0,0.2-0.2,0.4-0.3,0.6c-0.2,0.4-0.6,0.6-1,0.7c-1.8,0-3.6,0-5.3,0c-0.1,0-0.2-0.1-0.2-0.1     c0-0.1-0.2-0.1-0.2-0.2c0-2.4,0-4.8,0-7.2c0-0.4,0.1-0.4,0.5-0.4c0.6,0,1.4,0,2,0c0.2,0,0.3,0,0.3-0.3c0.1-0.8,0.2-1.6,0.3-2.3     c0-0.2,0-0.3-0.2-0.3c-0.8,0-1.6,0-2.4,0c-0.4,0-0.4,0-0.4-0.4c0-0.6,0-1.2,0-1.7c0-0.1,0-0.3,0-0.4c0.1-0.6,0.5-0.9,1-1     c0.2,0,0.3,0,0.5,0c0.5,0,0.9,0,1.4,0c0.2,0,0.2,0,0.2-0.2c0-0.7,0-1.4,0-2.1c0-0.2,0-0.2-0.2-0.2c-0.3,0-0.5,0-0.8-0.1     c-0.4,0-0.9,0-1.3,0c-0.6,0-1.2,0.1-1.8,0.4c-0.7,0.3-1.3,0.9-1.6,1.6c-0.3,0.6-0.4,1.2-0.4,1.9c0,0.7,0,1.3,0,2     c0,0.1,0,0.1,0,0.2c0,0.1-0.1,0.1-0.2,0.2c-0.1,0-0.2,0-0.2,0c-0.6,0-1.3,0-1.9,0c-0.3,0-0.3,0-0.3,0.3c0,0.8,0,1.5,0,2.3     c0,0.2,0,0.3,0.3,0.3c0.6,0,1.3,0,1.9,0c0.1,0,0.1,0,0.2,0c0.1,0,0.2,0.1,0.2,0.2c0,0.1,0,0.1,0,0.2c0,2.4,0,4.8,0,7.2     c0,0.1,0,0.2-0.1,0.3c0,0,0,0-0.1,0c-3.2,0-6.5,0-9.7,0c-0.7-0.1-1-0.5-1-1.2c0-5.9,0-11.8,0-17.8c0-0.4,0.1-0.7,0.4-1     C17.9,9.1,18.1,9,18.3,9z"
           id="path51" /></g></g></g></svg>