<?xml version="1.0" encoding="utf-8"?>
<!-- Generator: Adobe Illustrator 20.1.0, SVG Export Plug-In . SVG Version: 6.00 Build 0)  -->
<!DOCTYPE svg PUBLIC "-//W3C//DTD SVG 1.1//EN" "http://www.w3.org/Graphics/SVG/1.1/DTD/svg11.dtd">
<svg version="1.1" id="Laag_1" xmlns="http://www.w3.org/2000/svg" xmlns:xlink="http://www.w3.org/1999/xlink" x="0px" y="0px"
	 viewBox="0 0 200 200" style="enable-background:new 0 0 200 200;" xml:space="preserve">
<style type="text/css">
	.st0{fill:#FFFFFF;}
	.st1{fill-rule:evenodd;clip-rule:evenodd;fill:#3E6AAF;}
</style>
<g>
	<circle class="st0" cx="99.5" cy="100" r="55.2"/>
	<g>
		<path class="st1" d="M91.9,76.4L91.9,76.4c13.3-4,26.9,3,31.3,15.9c4,12.9-3,26.9-16,31.2c-13,4-26.9-3-31.3-16.3
			C71.9,94.3,78.9,80.7,91.9,76.4L91.9,76.4z M96.5,90.4L96.5,90.4c5.3-1.6,11,1.3,13,6.6c1.7,5-1.3,10.7-6.7,12.7
			c-5.6,1.6-11.3-1.3-13.3-6.7C87.9,97.7,90.8,92,96.5,90.4L96.5,90.4z M85.9,91c0.7,0.6,0.7,2.3,0.3,2.6c-0.3,0.6-1.3,0.6-2,0.6
			c-1-0.3-2,0.7-2.3,2c-0.3,1,0.3,2.3,1.3,2.3c0.7,0.3,1.7,2,1.7,2.3c0,0.7-0.7,1.4-1.7,1.7c-1,0.3-1.3,1.3-1,2.7
			c0.7,1.3,1.7,2,2.7,1.6c0.7-0.3,1.7,0,2,0.4c0.3,0.3,0.7,2,0,2.6c-0.7,0.6-0.3,2,0.3,3c1,0.7,2.7,1,3,0.4c0.7-0.7,2.7-0.7,3-0.4
			c0.7,0,0.7,1,0.7,2c-0.3,1,0.7,1.6,2,2c1.3,0.3,2.4-0.4,2.7-1c0-1,1.7-1.7,2.3-1.7c0.3,0,1,0.7,1.3,1.3c0.3,1,1.7,1.4,3,1
			c1.3-0.3,2-1.3,1.7-2.3c-0.3-1,0.7-2.3,1-2.7c0.7-0.3,1.3,0,2.3,0.7c0.7,0.6,2,0.3,2.7-0.7c1-1,1-2.3,0.3-2.6
			c-0.7-0.6-0.3-2.3-0.3-3c0.3-0.3,1.3-0.7,2.3-0.3c0.6,0,1.6-0.7,2-2c0.3-1.3-0.3-2.3-1-2.7c-1-0.3-1.7-1.6-2-2.3
			c0-0.3,0.7-1,1.6-1.3c1-0.4,1.4-1.7,1-2.6c-0.3-1.4-1.6-2-2.3-1.7c-1,0-2.6-1-3-1.3c-0.3-0.3,0-1.3,0.7-2c0.7-0.6,0.3-2-0.7-2.6
			c-0.7-1-2-1-2.7-0.4c-0.7,0.7-2.3,0.4-3,0.4c-0.3-0.4-0.7-1.4-0.3-2c0-1-1-2-2.3-2.3c-1,0-2.3,0.3-2.7,1.3c0,0.6-1.7,1.6-2.3,1.6
			c-0.3,0-1-0.6-1.4-1.6c-0.3-0.6-1.7-1.3-3-0.6c-1,0.3-2,1.3-1.7,2c0.3,1-0.7,2.3-1,2.6c-0.7,0.3-1.3,0.3-2-0.6
			c-1-0.3-2.4-0.3-3,0.6C85.2,89,85.2,90.4,85.9,91L85.9,91z M98.8,97.3L98.8,97.3c1.4-0.4,3,0.3,3.3,1.6c0.3,1.6-0.3,3-1.7,3.3
			c-1.7,0.6-3-0.3-3.7-1.7C96.5,99.3,97.2,98,98.8,97.3L98.8,97.3z M96,97.7V98h-0.5c-0.3,0-0.7,0.5-0.7,0.8c0,0.3,0,0.8,0.3,0.8
			c0.3,0,0.3,0.4,0.3,0.7c0,0,0,0.3-0.3,0.3c-0.3,0-0.3,0.3-0.3,0.7c0.3,0.3,0.3,0.7,0.7,0.3c0.3,0,0.7,0,0.7,0.4c0,0,0.3,0.3,0,0.6
			c-0.3,0,0,0.2,0.3,0.5c0,0.3,0.3,0.8,0.7-0.2h0.7c0.3,0,0.3,0.5,0.3,0.8c-0.3,0.3,0,0.4,0.3,0.8c0.3,0,0.7-0.3,0.7-0.3
			c0-0.3,0.7-0.6,0.7-0.6c0.3,0,0.3,0.3,0.3,0.3c0.3,0.3,0.7,0.7,1,0.3c0.3,0,0.3-0.3,0.3-0.6c0-0.3,0-0.7,0.3-0.7
			c0,0,0.2,0,0.2,0.4c0.3,0,0.9,0,0.9-0.4c0-0.3,0-0.6,0-0.6c0-0.3,0.1-0.7,0.1-0.7c0-0.3,0.4-0.3,0.4-0.3c0.3,0,0.7,0,0.7-0.4
			c0-0.3,0-0.6-0.3-0.6c-0.3-0.3-0.3-0.6-0.3-0.6c0-0.4,0-0.4,0.3-0.4c0.3-0.3,0.3-0.6,0.3-0.6c-0.3-0.3-0.2-0.7-0.6-0.7
			c-0.3,0-0.6,0-0.6-0.3c-1,0,0-0.3,0-0.3c0-0.4-0.2-0.3-0.2-1.3c-0.3,0-0.7,0-1,0c0,1-0.8,0.7-0.8,0.7c0-0.3,0-0.3,0-0.6
			c0-0.4-0.2-0.7-0.6-0.7c-0.3,0-0.6,0-0.6,0.3c0,0.4-0.3,0.4-0.6,0.4c0,0-0.3,0-0.3-0.4c0-0.3-0.3-0.3-0.6-0.3
			c-0.3,0.3-0.7,0.9-0.7,0.9c0.3,0.3,0,0.8-0.3,0.8h-0.3c-0.3,0-0.7,0-1,0C95.8,97,96,97.3,96,97.7L96,97.7z M66.9,78.1
			c1.7,1.4,1.4,5.7,0.7,7c-0.3,1-2.7,1.6-5,1c-2-0.4-4.3,1.6-5,5c-0.7,2.6,0.3,5.6,2.7,6.3c2.3,0.3,4,4,4,5.3c0.3,1.3-1.3,3-3.7,3.7
			c-2,1-3,3.7-2,7c1,2.6,3.3,4.6,5.6,4c2-0.7,4.3-0.3,5,0.6c0.7,1,1.3,5.3,0,7c-1.6,1.6-1,4.7,1.3,7c2.3,2,5.6,2.3,7,0.6
			c1.7-1.6,5.6-1.3,7-0.6c1,0.3,1.6,2.6,1.3,4.6c-0.7,2.3,1.3,4.7,4.7,5.4c3,0.6,6-0.7,6.3-2.6c0.7-2.3,4.3-4,5.6-4.3
			c1,0,3,1.6,3.7,3.7c0.7,2.3,3.7,3.3,6.7,2.3c3-1,4.6-3.7,4-5.7c-0.7-2.3,1.7-5.6,2.6-6.3c1.4-1,3.3-0.3,5,1.3c1.7,1.7,5,1,7-1.3
			c2-2.6,2.3-5.7,0.7-6.9c-1.7-1.7-1.3-6-0.7-7c0.3-1.3,2.7-1.6,5-1.3c2.3,0.6,4.6-1.7,5.3-4.7c0.3-3-0.7-6-3-6.6c-2-0.3-4-4-4-5.4
			c-0.3-1.3,1.3-3,3.7-3.7c2-0.6,3-3.7,2-6.6c-1-3-3.3-4.7-5.6-4c-2,0.7-5.6-1.6-6.3-2.6c-1-1.3-0.3-3.7,1.3-5.4
			c1.6-1.6,1-4.6-1.3-6.6c-2.3-2.3-5.3-2.7-7-1c-1.7,1.7-5.7,1.7-7,1c-1-0.7-1.6-2.7-1.3-5c0.7-2.3-1.7-4.7-4.7-5.3
			c-3-0.7-6,0.6-6.3,3c-0.3,2-4.3,4-5.6,4c-1.4,0-2.7-1.4-3.7-3.7c-0.7-2.3-3.7-3-6.7-2.3c-2.6,1-4.6,3.7-4,6c0.7,2-1.7,5.3-3,6.3
			c-1,0.7-3,0-4.7-1.3c-1.6-1.7-5-1-7,1.3C65.6,73.4,65.3,76.4,66.9,78.1L66.9,78.1z"/>
	</g>
</g>
</svg>
