<?xml version="1.0" encoding="utf-8"?>
<!-- Generator: Adobe Illustrator 20.1.0, SVG Export Plug-In . SVG Version: 6.00 Build 0)  -->
<!DOCTYPE svg PUBLIC "-//W3C//DTD SVG 1.1//EN" "http://www.w3.org/Graphics/SVG/1.1/DTD/svg11.dtd">
<svg version="1.1" id="Laag_1" xmlns="http://www.w3.org/2000/svg" xmlns:xlink="http://www.w3.org/1999/xlink" x="0px" y="0px"
	 viewBox="0 0 200 200" style="enable-background:new 0 0 200 200;" xml:space="preserve">
<style type="text/css">
	.st0{fill:#3E6AAF;}
	.st1{fill:#E0303B;}
</style>
<g>
	<path class="st0" d="M100.3,127.6L100.3,127.6c4.3,0,7.8-3.5,7.8-7.8v-34c0-4.3-3.5-7.8-7.8-7.8l0,0c-4.3,0-7.8,3.5-7.8,7.8v34
		C92.6,124.1,96.1,127.6,100.3,127.6z"/>
	<path class="st0" d="M125.1,102.8L125.1,102.8c0-4.3-3.5-7.8-7.8-7.8h-34c-4.3,0-7.8,3.5-7.8,7.8l0,0c0,4.3,3.5,7.8,7.8,7.8h34
		C121.6,110.6,125.1,107.1,125.1,102.8z"/>
	<g>
		<path class="st1" d="M107,54.2v7.2c20,3.3,34.7,20.4,34.7,40.9c0,22.9-18.5,41.5-41.4,41.5s-41.5-18.5-41.5-41.4
			c0-1.2,0.1-2.5,0.2-3.5h-7.2c-0.1,1-0.1,2.3-0.1,3.5c0,26.8,21.8,48.6,48.7,48.6s48.5-21.9,48.5-48.7
			C148.8,77.9,131,57.6,107,54.2z"/>
	</g>
	<path class="st1" d="M123.5,47.3L123.5,47.3c0.8,1.9-0.1,4-2,4.8l-17.3,7c-1.9,0.8-4-0.1-4.8-2l0,0c-0.8-1.9,0.1-4,2-4.8l17.3-7
		C120.6,44.5,122.8,45.4,123.5,47.3z"/>
	<path class="st1" d="M100.9,52.9L100.9,52.9c-1.7,1.1-2.2,3.3-1.1,5l9.9,15.8c1.1,1.7,3.3,2.2,5,1.1l0,0c1.7-1.1,2.2-3.3,1.1-5
		L105.9,54C104.8,52.3,102.5,51.8,100.9,52.9z"/>
	<circle class="st1" cx="54.8" cy="91.3" r="11"/>
</g>
</svg>
