<?xml version="1.0" encoding="utf-8"?>
<!-- Generator: Adobe Illustrator 20.1.0, SVG Export Plug-In . SVG Version: 6.00 Build 0)  -->
<!DOCTYPE svg PUBLIC "-//W3C//DTD SVG 1.1//EN" "http://www.w3.org/Graphics/SVG/1.1/DTD/svg11.dtd">
<svg version="1.1" id="Laag_1" xmlns="http://www.w3.org/2000/svg" xmlns:xlink="http://www.w3.org/1999/xlink" x="0px" y="0px"
	 viewBox="0 0 960 560" style="enable-background:new 0 0 960 560;" xml:space="preserve">
<style type="text/css">
	.st0{fill:#E0303B;}
	.st1{fill:#3E6AAF;}
	.st2{fill:#972557;}
	.st3{fill:#FFFFFF;}
</style>
<g>
	<path class="st0" d="M228.8,291.4c-1.6,0.4-4.1,0.9-7.4,1.3c-3.4,0.4-6.7,0.6-10,0.6c-3.3,0-6.2-0.3-8.7-0.8
		c-2.5-0.5-4.6-1.4-6.4-2.7c-1.7-1.3-3-3.1-3.9-5.4c-0.9-2.3-1.3-5.3-1.3-9.1v-114c1.6-0.3,4.1-0.7,7.6-1.2c3.5-0.5,6.8-0.8,9.9-0.8
		c3.3,0,6.2,0.3,8.7,0.8c2.5,0.5,4.6,1.4,6.4,2.7c1.7,1.3,3,3.1,3.9,5.4c0.9,2.3,1.3,5.3,1.3,9.1V291.4z"/>
	<path class="st0" d="M186.5,232.9c-0.4,0.2-1,0.4-1.8,0.6c-0.8,0.2-1.6,0.3-2.4,0.3s-1.5-0.1-2.1-0.4c-0.6-0.3-1.1-0.7-1.5-1.4
		s-0.7-1.5-0.9-2.7c-0.2-1.2-0.3-2.7-0.3-4.5v-57c0.4-0.1,1-0.3,1.8-0.6c0.8-0.3,1.6-0.4,2.3-0.4c0.8,0,1.5,0.1,2.1,0.4
		c0.6,0.3,1.1,0.7,1.5,1.4s0.7,1.5,0.9,2.7c0.2,1.2,0.3,2.7,0.3,4.5V232.9z"/>
	<path class="st0" d="M242,232.9c-0.4,0.2-1,0.4-1.8,0.6c-0.8,0.2-1.6,0.3-2.4,0.3s-1.5-0.1-2.1-0.4c-0.6-0.3-1.1-0.7-1.5-1.4
		c-0.4-0.6-0.7-1.5-0.9-2.7c-0.2-1.2-0.3-2.7-0.3-4.5v-57c0.4-0.1,1-0.3,1.8-0.6c0.8-0.3,1.6-0.4,2.3-0.4c0.8,0,1.5,0.1,2.1,0.4
		c0.6,0.3,1.1,0.7,1.5,1.4s0.7,1.5,0.9,2.7c0.2,1.2,0.3,2.7,0.3,4.5V232.9z"/>
	<path class="st1" d="M300.7,249.6V291c-1.6,0.4-4.1,0.9-7.4,1.3c-3.4,0.4-6.7,0.6-10,0.6c-3.3,0-6.2-0.3-8.7-0.8
		c-2.5-0.5-4.6-1.4-6.3-2.7c-1.7-1.3-2.9-3.1-3.8-5.4s-1.3-5.3-1.3-9.1V173.4c0-3,0.8-5.4,2.5-7c1.7-1.7,3.9-3,6.8-4
		c4.9-1.7,10.6-3,17.1-3.8c6.5-0.8,13.4-1.2,20.7-1.2c19.9,0,34.8,4.2,44.9,12.5c10.1,8.3,15.1,19.6,15.1,33.9
		c0,8.9-2.3,16.5-6.9,22.9c-4.6,6.3-10.1,11.2-16.4,14.7c5.2,7.1,10.3,13.7,15.3,19.9c5,6.2,9,11.8,11.9,16.8
		c-1.4,5-4.1,8.9-7.9,11.5s-8.1,4-12.8,4c-3.2,0-5.9-0.4-8.2-1.1c-2.3-0.7-4.3-1.7-6-3c-1.7-1.3-3.3-2.9-4.8-4.7
		c-1.4-1.9-2.8-3.9-4.1-6l-18.1-29.1H300.7z M314.3,220.9c5.5,0,9.8-1.4,12.9-4.2s4.8-6.9,4.8-12.4c0-5.5-1.8-9.6-5.3-12.4
		s-9.1-4.2-16.7-4.2c-2.2,0-3.9,0.1-5.2,0.2c-1.3,0.1-2.7,0.4-4.3,0.6v32.4H314.3z"/>
	<path class="st1" d="M448.5,239.9c-6.3-2.2-12.1-4.4-17.3-6.6c-5.2-2.2-9.6-4.9-13.4-8.1c-3.7-3.2-6.7-6.9-8.7-11.3
		c-2.1-4.4-3.1-9.7-3.1-16.1c0-12.2,4.7-22,14.1-29.4c9.4-7.3,22.6-11,39.6-11c6.2,0,11.9,0.4,17.3,1.3c5.3,0.9,9.9,2.2,13.7,4
		c3.8,1.8,6.8,4.1,9,6.9c2.2,2.8,3.2,6.1,3.2,9.8s-0.9,6.9-2.6,9.6c-1.7,2.7-3.8,4.9-6.3,6.8c-3.2-2-7.4-3.8-12.7-5.3
		c-5.3-1.5-11.2-2.3-17.5-2.3c-6.5,0-11.2,0.9-14.2,2.7c-3,1.8-4.5,4.1-4.5,6.8c0,2.2,0.9,3.9,2.8,5.3c1.9,1.4,4.7,2.6,8.4,3.8
		l11.4,3.7c13.5,4.3,23.9,9.8,31.2,16.5c7.3,6.7,10.9,15.8,10.9,27.3c0,12.2-4.8,22.1-14.5,29.7c-9.6,7.6-23.8,11.3-42.5,11.3
		c-6.6,0-12.8-0.5-18.5-1.6c-5.7-1.1-10.6-2.7-14.9-4.8c-4.2-2.1-7.6-4.7-9.9-7.8c-2.4-3.1-3.6-6.7-3.6-10.7c0-4.2,1.2-7.7,3.7-10.7
		c2.4-3,5.1-5.2,8-6.8c4,3.2,9,5.9,14.8,8.2c5.8,2.3,12.2,3.5,19.1,3.5c7,0,12-1.1,14.9-3.2c2.9-2.2,4.3-4.7,4.3-7.6
		c0-2.9-1.2-5.1-3.5-6.6c-2.3-1.5-5.5-3-9.7-4.4L448.5,239.9z"/>
	<path class="st1" d="M572.5,243.3V291c-1.6,0.4-4.1,0.9-7.6,1.3c-3.5,0.4-6.8,0.6-10.1,0.6c-3.3,0-6.2-0.3-8.7-0.8
		c-2.5-0.5-4.6-1.4-6.4-2.7c-1.7-1.3-3-3.1-3.9-5.4c-0.9-2.3-1.3-5.3-1.3-9.1v-114c1.6-0.3,4.1-0.7,7.6-1.2c3.5-0.5,6.8-0.8,9.9-0.8
		c3.3,0,6.2,0.3,8.7,0.8c2.5,0.5,4.6,1.4,6.4,2.7c1.7,1.3,3,3.1,3.9,5.4c0.9,2.3,1.3,5.3,1.3,9.1v34.3l44.9-51.6
		c9.8,0,16.8,1.8,21,5.5c4.2,3.7,6.4,8,6.4,13.1c0,3.7-0.9,7.3-2.8,10.6c-1.9,3.3-4.9,7.1-9.1,11.2l-27,27c3.6,4,7.3,8.1,11.2,12.3
		c3.9,4.2,7.7,8.3,11.4,12.4c3.7,4.1,7.4,8,10.9,11.8c3.5,3.7,6.7,7.1,9.6,10.1c0,3.2-0.6,6-1.7,8.4c-1.2,2.5-2.7,4.5-4.6,6.3
		c-1.9,1.7-4.1,3-6.6,3.9c-2.4,0.9-5,1.3-7.8,1.3c-5.9,0-10.7-1.5-14.5-4.4c-3.7-3-7.3-6.4-10.8-10.5L572.5,243.3z"/>
	<path class="st1" d="M673.6,181.2c0-6.2,1.8-11.1,5.4-14.7c3.6-3.6,8.5-5.4,14.7-5.4h71.2c1,1.6,1.9,3.7,2.7,6.3s1.2,5.3,1.2,8.2
		c0,5.5-1.2,9.4-3.6,11.7c-2.4,2.3-5.5,3.5-9.4,3.5h-45.5v20.1h48.6c1,1.6,1.9,3.6,2.7,6.1c0.8,2.5,1.2,5.2,1.2,8.1
		c0,5.5-1.2,9.4-3.5,11.7c-2.3,2.3-5.4,3.5-9.3,3.5h-39.7v22.7h55.5c1,1.6,1.9,3.7,2.7,6.3c0.8,2.6,1.2,5.3,1.2,8.2
		c0,5.5-1.2,9.4-3.6,11.8c-2.4,2.4-5.5,3.6-9.4,3.6h-63c-6.2,0-11.1-1.8-14.7-5.4c-3.6-3.6-5.4-8.5-5.4-14.7V181.2z"/>
</g>
<g>
	<path class="st1" d="M94.5,295.1c-2.5,0-5.4-0.1-8.7-0.2c-3.3-0.1-6.8-0.4-10.3-0.9c-3.5-0.4-7.1-1-10.5-1.6
		c-3.5-0.7-6.7-1.6-9.6-2.7c-8-3-11.9-8.3-11.9-15.8V172.4c0-3,0.8-5.4,2.5-7.1c1.7-1.7,3.9-3,6.8-4c4.9-1.7,11.1-3,18.4-3.8
		c7.4-0.8,15-1.2,22.8-1.2c18.5,0,32.8,3.1,42.8,9.3c10,6.2,15,15.8,15,28.9c0,6.5-1.9,12.1-5.6,16.8c-3.8,4.7-8.8,8.1-15.2,10.3
		c7.2,2,13.3,5.7,18.1,11.1c4.8,5.4,7.3,12.1,7.3,20.2c0,14.3-5.3,24.9-16,31.8S114.4,295.1,94.5,295.1z M80.4,211.5h15.8
		c6.2,0,10.7-1.2,13.6-3.5c2.8-2.3,4.2-5.7,4.2-10.2c0-3.9-1.6-7-4.9-9.3c-3.3-2.3-8.1-3.5-14.7-3.5c-2.2,0-4.7,0.1-7.5,0.2
		c-2.8,0.1-5,0.4-6.6,0.7V211.5z M80.4,264.5c2,0.6,4.6,1,7.8,1.2c3.2,0.2,6.2,0.3,9.1,0.3c5.8,0,10.6-1.2,14.4-3.6
		c3.8-2.4,5.8-6.1,5.8-11.2c0-4.8-1.6-8.2-4.8-10.2c-3.2-2-8-3-14.5-3H80.4V264.5z"/>
</g>
<g>
	<path class="st1" d="M912.8,286.6c-2,2-5,3.6-8.8,4.7c-3.8,1.1-8.4,1.6-13.8,1.6c-5.4,0-10.4-0.8-15.2-2.4
		c-4.8-1.6-8.7-5.4-11.7-11.5l-21.5-43.8c-2.2-4.5-4.1-8.7-5.9-12.7c-1.7-4-3.6-8.6-5.6-13.8l-1.3,0.2c0.6,7.8,0.9,15.8,1,23.9
		c0.1,8.1,0.1,16.1,0.1,23.9v33.6c-1.6,0.4-4,0.9-7.3,1.3c-3.3,0.4-6.5,0.7-9.7,0.7c-3.2,0-6-0.2-8.5-0.7c-2.5-0.4-4.5-1.3-6.1-2.6
		c-1.6-1.3-2.8-3.1-3.7-5.3c-0.9-2.2-1.3-5.2-1.3-8.8V166.4c2-2.9,5.1-5.1,9.3-6.5c4.2-1.4,8.7-2.2,13.5-2.2
		c5.4,0,10.5,0.8,15.3,2.5c4.8,1.7,8.7,5.5,11.6,11.4l21.7,43.8c2.2,4.5,4.1,8.7,5.9,12.7c1.7,4,3.6,8.6,5.6,13.8l1.1-0.2
		c-0.6-7.8-0.9-15.6-1.1-23.4c-0.1-7.8-0.2-15.6-0.2-23.4v-35.2c1.6-0.4,4-0.9,7.3-1.3s6.5-0.7,9.7-0.7c6.4,0,11.2,1.1,14.5,3.4
		c3.3,2.2,5,6.9,5,14V286.6z"/>
</g>
<circle class="st0" cx="208.6" cy="125.6" r="22.1"/>
<path class="st2" d="M885.2,385.9H71.1c-16.7,0-30.4-13.7-30.4-30.4v-6.3c0-16.7,13.7-30.4,30.4-30.4h814.1
	c16.7,0,30.4,13.7,30.4,30.4v6.3C915.6,372.2,901.9,385.9,885.2,385.9z"/>
<g>
	<path class="st3" d="M88.9,340.6v9.6h14.6v-9.6c0-1.4,0.3-2.4,0.9-3.1c0.6-0.7,1.4-1,2.4-1c1,0,1.8,0.3,2.5,1
		c0.6,0.7,0.9,1.7,0.9,3.1V367c0,1.4-0.3,2.4-1,3.1c-0.6,0.7-1.5,1-2.5,1c-1,0-1.8-0.3-2.4-1c-0.6-0.7-0.9-1.7-0.9-3.1v-11.3H88.9
		V367c0,1.4-0.3,2.4-1,3.1c-0.6,0.7-1.5,1-2.5,1c-1,0-1.8-0.3-2.4-1c-0.6-0.7-0.9-1.7-0.9-3.1v-26.4c0-1.4,0.3-2.4,0.9-3.1
		c0.6-0.7,1.4-1,2.5-1c1,0,1.8,0.3,2.5,1C88.6,338.2,88.9,339.2,88.9,340.6z"/>
	<path class="st3" d="M117.7,356.7v-16.1c0-1.4,0.3-2.4,0.9-3.1c0.6-0.7,1.4-1,2.4-1c1.1,0,1.9,0.3,2.5,1c0.6,0.7,0.9,1.7,0.9,3.1
		v16.5c0,1.9,0.2,3.4,0.6,4.7s1.2,2.2,2.2,2.9c1.1,0.7,2.6,1,4.5,1c2.7,0,4.5-0.7,5.6-2.1c1.1-1.4,1.6-3.5,1.6-6.4v-16.6
		c0-1.4,0.3-2.4,0.9-3.1c0.6-0.7,1.4-1,2.4-1c1,0,1.8,0.3,2.5,1s0.9,1.7,0.9,3.1v16.1c0,2.6-0.3,4.8-0.8,6.6
		c-0.5,1.8-1.5,3.3-2.9,4.6c-1.2,1.1-2.6,2-4.2,2.5c-1.6,0.5-3.5,0.8-5.7,0.8c-2.6,0-4.8-0.3-6.6-0.8c-1.9-0.6-3.4-1.4-4.5-2.6
		c-1.2-1.2-2-2.7-2.6-4.5S117.7,359.2,117.7,356.7z"/>
	<path class="st3" d="M164.5,365.5l-5.4-21.3v23.1c0,1.3-0.3,2.2-0.9,2.9s-1.3,1-2.3,1c-0.9,0-1.7-0.3-2.2-0.9
		c-0.6-0.6-0.9-1.6-0.9-2.9v-26.5c0-1.5,0.4-2.4,1.1-3c0.8-0.5,1.8-0.8,3.1-0.8h2.1c1.3,0,2.2,0.1,2.8,0.3s1,0.6,1.3,1.2
		c0.3,0.6,0.6,1.6,0.9,2.9l4.9,18.3l4.9-18.3c0.4-1.3,0.7-2.3,0.9-2.9c0.3-0.6,0.7-1,1.3-1.2s1.5-0.3,2.8-0.3h2.1
		c1.3,0,2.3,0.3,3.1,0.8c0.8,0.5,1.1,1.5,1.1,3v26.5c0,1.3-0.3,2.2-0.9,2.9s-1.3,1-2.3,1c-0.9,0-1.6-0.3-2.2-1s-0.9-1.6-0.9-2.9
		v-23.1l-5.4,21.3c-0.4,1.4-0.6,2.4-0.9,3.1c-0.2,0.6-0.6,1.2-1.2,1.8s-1.4,0.8-2.5,0.8c-0.8,0-1.5-0.2-2-0.5
		c-0.5-0.3-1-0.8-1.3-1.3s-0.5-1.1-0.7-1.8C164.9,366.9,164.7,366.2,164.5,365.5z"/>
	<path class="st3" d="M213.6,366.8l-1.6-4.2h-13.6l-1.6,4.3c-0.6,1.7-1.2,2.8-1.6,3.4c-0.4,0.6-1.2,0.9-2.2,0.9
		c-0.9,0-1.6-0.3-2.3-0.9c-0.7-0.6-1-1.3-1-2.1c0-0.5,0.1-0.9,0.2-1.4c0.2-0.5,0.4-1.2,0.8-2l8.6-21.8c0.2-0.6,0.5-1.4,0.9-2.3
		s0.7-1.6,1.1-2.2c0.4-0.6,0.9-1,1.5-1.4c0.6-0.4,1.4-0.5,2.3-0.5c0.9,0,1.7,0.2,2.4,0.5c0.6,0.4,1.1,0.8,1.5,1.4
		c0.4,0.6,0.7,1.2,1,1.8c0.3,0.6,0.6,1.5,1,2.6l8.8,21.6c0.7,1.6,1,2.8,1,3.6c0,0.8-0.3,1.5-1,2.1c-0.6,0.6-1.4,1-2.3,1
		c-0.5,0-1-0.1-1.4-0.3c-0.4-0.2-0.7-0.4-1-0.8c-0.3-0.3-0.5-0.8-0.8-1.5C214.1,367.9,213.9,367.3,213.6,366.8z M200.2,357.5h10
		l-5-13.8L200.2,357.5z"/>
	<path class="st3" d="M234.7,340.5l13,19.7v-19.9c0-1.3,0.3-2.3,0.8-2.9c0.6-0.6,1.3-1,2.3-1c1,0,1.7,0.3,2.3,1
		c0.6,0.6,0.8,1.6,0.8,2.9v26.3c0,2.9-1.2,4.4-3.7,4.4c-0.6,0-1.2-0.1-1.6-0.3c-0.5-0.2-0.9-0.5-1.4-0.8c-0.4-0.4-0.8-0.8-1.2-1.3
		c-0.4-0.5-0.7-1-1.1-1.6l-12.7-19.5v19.6c0,1.3-0.3,2.2-0.9,2.9c-0.6,0.7-1.4,1-2.3,1c-1,0-1.7-0.3-2.3-1c-0.6-0.7-0.9-1.6-0.9-2.9
		v-25.8c0-1.1,0.1-2,0.4-2.6c0.3-0.7,0.8-1.2,1.4-1.7c0.7-0.4,1.4-0.7,2.2-0.7c0.6,0,1.1,0.1,1.6,0.3s0.8,0.5,1.1,0.8s0.7,0.8,1,1.3
		C234,339.4,234.3,340,234.7,340.5z"/>
	<path class="st3" d="M282.2,356.2h-2.4V367c0,1.4-0.3,2.5-0.9,3.1c-0.6,0.7-1.4,1-2.4,1c-1.1,0-1.9-0.4-2.5-1.1
		c-0.6-0.7-0.9-1.7-0.9-3.1v-25.8c0-1.5,0.3-2.5,1-3.2c0.7-0.7,1.7-1,3.2-1h11c1.5,0,2.8,0.1,3.9,0.2c1.1,0.1,2.1,0.4,2.9,0.8
		c1.1,0.4,2,1.1,2.8,1.9c0.8,0.8,1.4,1.8,1.8,2.9c0.4,1.1,0.6,2.2,0.6,3.5c0,2.5-0.7,4.5-2.1,6s-3.5,2.6-6.4,3.2
		c1.2,0.6,2.4,1.6,3.5,2.8c1.1,1.2,2.1,2.6,2.9,4c0.9,1.4,1.5,2.7,2,3.8s0.7,1.9,0.7,2.3c0,0.4-0.1,0.9-0.4,1.3s-0.7,0.8-1.2,1
		c-0.5,0.3-1.1,0.4-1.7,0.4c-0.8,0-1.4-0.2-1.9-0.5c-0.5-0.4-1-0.8-1.3-1.4c-0.4-0.5-0.9-1.4-1.5-2.4l-2.7-4.5
		c-1-1.7-1.8-2.9-2.6-3.8c-0.8-0.9-1.6-1.5-2.3-1.8C284.4,356.4,283.4,356.2,282.2,356.2z M286.1,342.1h-6.3v9.2h6.1
		c1.6,0,3-0.1,4.1-0.4c1.1-0.3,2-0.8,2.5-1.4s0.9-1.6,0.9-2.8c0-0.9-0.2-1.7-0.7-2.5c-0.5-0.7-1.1-1.2-2-1.6
		C290,342.3,288.5,342.1,286.1,342.1z"/>
	<path class="st3" d="M328.9,342.3h-15.3v8.2h14.1c1,0,1.8,0.2,2.3,0.7c0.5,0.5,0.8,1.1,0.8,1.8s-0.3,1.4-0.8,1.9
		c-0.5,0.5-1.3,0.7-2.3,0.7h-14.1v9.5h15.8c1.1,0,1.9,0.2,2.4,0.7c0.5,0.5,0.8,1.2,0.8,2c0,0.8-0.3,1.4-0.8,1.9
		c-0.5,0.5-1.3,0.7-2.4,0.7h-18.4c-1.5,0-2.5-0.3-3.2-1s-1-1.7-1-3.2v-25.2c0-1,0.1-1.8,0.4-2.4c0.3-0.6,0.7-1.1,1.4-1.3
		c0.6-0.3,1.4-0.4,2.4-0.4h17.9c1.1,0,1.9,0.2,2.4,0.7c0.5,0.5,0.8,1.1,0.8,1.9c0,0.8-0.3,1.4-0.8,1.9
		C330.7,342,329.9,342.3,328.9,342.3z"/>
	<path class="st3" d="M363.4,360.5c0,2-0.5,3.8-1.6,5.5s-2.6,2.9-4.6,3.8c-2,0.9-4.4,1.4-7.2,1.4c-3.3,0-6-0.6-8.2-1.9
		c-1.5-0.9-2.8-2.1-3.7-3.6c-1-1.5-1.4-3-1.4-4.4c0-0.8,0.3-1.5,0.9-2.1c0.6-0.6,1.3-0.9,2.2-0.9c0.7,0,1.3,0.2,1.8,0.7
		s0.9,1.1,1.3,2c0.4,1.1,0.9,2,1.4,2.7c0.5,0.7,1.2,1.3,2.1,1.8c0.9,0.5,2.1,0.7,3.5,0.7c2,0,3.6-0.5,4.9-1.4
		c1.3-0.9,1.9-2.1,1.9-3.5c0-1.1-0.3-2-1-2.7c-0.7-0.7-1.6-1.2-2.6-1.6c-1.1-0.4-2.5-0.8-4.3-1.2c-2.4-0.6-4.4-1.2-6-2
		c-1.6-0.8-2.9-1.8-3.9-3.1s-1.4-2.9-1.4-4.9c0-1.8,0.5-3.5,1.5-4.9c1-1.4,2.5-2.5,4.4-3.3c1.9-0.8,4.1-1.2,6.7-1.2
		c2.1,0,3.8,0.3,5.3,0.8c1.5,0.5,2.7,1.2,3.7,2s1.7,1.7,2.2,2.7c0.5,0.9,0.7,1.8,0.7,2.7c0,0.8-0.3,1.5-0.9,2.2s-1.3,1-2.1,1
		c-0.8,0-1.4-0.2-1.8-0.6c-0.4-0.4-0.8-1-1.3-1.9c-0.6-1.3-1.3-2.3-2.2-3c-0.9-0.7-2.2-1.1-4.1-1.1c-1.8,0-3.2,0.4-4.2,1.2
		c-1.1,0.8-1.6,1.7-1.6,2.8c0,0.7,0.2,1.2,0.5,1.7c0.4,0.5,0.9,0.9,1.5,1.3c0.6,0.4,1.3,0.6,1.9,0.8c0.7,0.2,1.7,0.5,3.2,0.9
		c1.9,0.4,3.6,0.9,5.1,1.5c1.5,0.5,2.8,1.2,3.9,1.9c1.1,0.8,1.9,1.7,2.5,2.9C363.1,357.4,363.4,358.8,363.4,360.5z"/>
	<path class="st3" d="M383.9,336.5c3.5,0,6.5,0.7,8.9,2.1s4.4,3.4,5.7,6c1.3,2.6,1.9,5.6,1.9,9.2c0,2.6-0.4,4.9-1.1,7.1
		c-0.7,2.1-1.8,4-3.2,5.5c-1.4,1.6-3.1,2.7-5.2,3.6c-2,0.8-4.4,1.2-7,1.2c-2.6,0-5-0.4-7-1.3c-2.1-0.8-3.8-2-5.2-3.6
		c-1.4-1.5-2.4-3.4-3.1-5.6c-0.7-2.2-1.1-4.5-1.1-7c0-2.6,0.4-4.9,1.1-7.1c0.7-2.1,1.8-4,3.2-5.5c1.4-1.5,3.1-2.7,5.1-3.5
		S381.4,336.5,383.9,336.5z M393.6,353.7c0-2.5-0.4-4.6-1.2-6.4c-0.8-1.8-1.9-3.2-3.4-4.1c-1.5-0.9-3.2-1.4-5.1-1.4
		c-1.4,0-2.6,0.3-3.8,0.8c-1.2,0.5-2.1,1.3-3,2.2c-0.8,1-1.5,2.2-2,3.7c-0.5,1.5-0.7,3.2-0.7,5.1c0,1.9,0.2,3.6,0.7,5.2
		c0.5,1.5,1.2,2.8,2,3.8c0.9,1,1.9,1.8,3,2.3c1.1,0.5,2.4,0.8,3.7,0.8c1.7,0,3.3-0.4,4.8-1.3s2.6-2.2,3.5-4
		C393.2,358.6,393.6,356.4,393.6,353.7z"/>
	<path class="st3" d="M406.3,356.7v-16.1c0-1.4,0.3-2.4,0.9-3.1c0.6-0.7,1.4-1,2.4-1c1.1,0,1.9,0.3,2.5,1c0.6,0.7,0.9,1.7,0.9,3.1
		v16.5c0,1.9,0.2,3.4,0.6,4.7s1.2,2.2,2.2,2.9c1.1,0.7,2.6,1,4.5,1c2.7,0,4.5-0.7,5.6-2.1c1.1-1.4,1.6-3.5,1.6-6.4v-16.6
		c0-1.4,0.3-2.4,0.9-3.1c0.6-0.7,1.4-1,2.4-1c1,0,1.8,0.3,2.5,1s0.9,1.7,0.9,3.1v16.1c0,2.6-0.3,4.8-0.8,6.6
		c-0.5,1.8-1.5,3.3-2.9,4.6c-1.2,1.1-2.6,2-4.2,2.5c-1.6,0.5-3.5,0.8-5.7,0.8c-2.6,0-4.8-0.3-6.6-0.8c-1.9-0.6-3.4-1.4-4.5-2.6
		c-1.2-1.2-2-2.7-2.6-4.5S406.3,359.2,406.3,356.7z"/>
	<path class="st3" d="M450.9,356.2h-2.4V367c0,1.4-0.3,2.5-0.9,3.1c-0.6,0.7-1.4,1-2.4,1c-1.1,0-1.9-0.4-2.5-1.1
		c-0.6-0.7-0.9-1.7-0.9-3.1v-25.8c0-1.5,0.3-2.5,1-3.2c0.7-0.7,1.7-1,3.2-1h11c1.5,0,2.8,0.1,3.9,0.2c1.1,0.1,2.1,0.4,2.9,0.8
		c1.1,0.4,2,1.1,2.8,1.9c0.8,0.8,1.4,1.8,1.8,2.9c0.4,1.1,0.6,2.2,0.6,3.5c0,2.5-0.7,4.5-2.1,6s-3.5,2.6-6.4,3.2
		c1.2,0.6,2.4,1.6,3.5,2.8c1.1,1.2,2.1,2.6,2.9,4c0.9,1.4,1.5,2.7,2,3.8s0.7,1.9,0.7,2.3c0,0.4-0.1,0.9-0.4,1.3s-0.7,0.8-1.2,1
		c-0.5,0.3-1.1,0.4-1.7,0.4c-0.8,0-1.4-0.2-1.9-0.5c-0.5-0.4-1-0.8-1.3-1.4c-0.4-0.5-0.9-1.4-1.5-2.4l-2.7-4.5
		c-1-1.7-1.8-2.9-2.6-3.8c-0.8-0.9-1.6-1.5-2.3-1.8C453.1,356.4,452.1,356.2,450.9,356.2z M454.8,342.1h-6.3v9.2h6.1
		c1.6,0,3-0.1,4.1-0.4c1.1-0.3,2-0.8,2.5-1.4s0.9-1.6,0.9-2.8c0-0.9-0.2-1.7-0.7-2.5c-0.5-0.7-1.1-1.2-2-1.6
		C458.7,342.3,457.2,342.1,454.8,342.1z"/>
	<path class="st3" d="M503.4,360c0,1.1-0.3,2.2-0.8,3.5c-0.5,1.2-1.4,2.5-2.5,3.7c-1.1,1.2-2.6,2.2-4.3,2.9
		c-1.8,0.7-3.8,1.1-6.1,1.1c-1.8,0-3.4-0.2-4.8-0.5s-2.8-0.9-3.9-1.6c-1.2-0.7-2.3-1.6-3.3-2.8c-0.9-1.1-1.6-2.2-2.3-3.5
		c-0.6-1.3-1.1-2.7-1.4-4.2c-0.3-1.5-0.5-3-0.5-4.7c0-2.7,0.4-5.1,1.2-7.2s1.9-4,3.4-5.5s3.2-2.7,5.1-3.5c2-0.8,4.1-1.2,6.3-1.2
		c2.7,0,5.1,0.5,7.2,1.6c2.1,1.1,3.7,2.4,4.9,4c1.1,1.6,1.7,3.1,1.7,4.5c0,0.8-0.3,1.5-0.8,2.1c-0.5,0.6-1.2,0.9-2,0.9
		c-0.9,0-1.5-0.2-2-0.6s-0.9-1.1-1.5-2.1c-0.9-1.7-1.9-2.9-3.1-3.7c-1.2-0.8-2.7-1.2-4.4-1.2c-2.8,0-5,1.1-6.7,3.2
		c-1.7,2.1-2.5,5.1-2.5,9c0,2.6,0.4,4.8,1.1,6.5c0.7,1.7,1.8,3,3.1,3.9c1.3,0.9,2.9,1.3,4.7,1.3c2,0,3.6-0.5,4.9-1.5
		c1.3-1,2.4-2.4,3.1-4.3c0.3-0.9,0.6-1.6,1.1-2.2c0.4-0.6,1.1-0.8,2.1-0.8c0.8,0,1.5,0.3,2.1,0.8C503.1,358.4,503.4,359.1,503.4,360
		z"/>
	<path class="st3" d="M531.6,342.3h-15.3v8.2h14.1c1,0,1.8,0.2,2.3,0.7c0.5,0.5,0.8,1.1,0.8,1.8s-0.3,1.4-0.8,1.9
		c-0.5,0.5-1.3,0.7-2.3,0.7h-14.1v9.5h15.8c1.1,0,1.9,0.2,2.4,0.7c0.5,0.5,0.8,1.2,0.8,2c0,0.8-0.3,1.4-0.8,1.9
		c-0.5,0.5-1.3,0.7-2.4,0.7h-18.4c-1.5,0-2.5-0.3-3.2-1s-1-1.7-1-3.2v-25.2c0-1,0.1-1.8,0.4-2.4c0.3-0.6,0.7-1.1,1.4-1.3
		c0.6-0.3,1.4-0.4,2.4-0.4h17.9c1.1,0,1.9,0.2,2.4,0.7c0.5,0.5,0.8,1.1,0.8,1.9c0,0.8-0.3,1.4-0.8,1.9
		C533.5,342,532.7,342.3,531.6,342.3z"/>
	<path class="st3" d="M552.7,367v-26.4c0-1.4,0.3-2.4,0.9-3.1c0.6-0.7,1.4-1,2.4-1c1,0,1.8,0.3,2.5,1c0.6,0.7,0.9,1.7,0.9,3.1V367
		c0,1.4-0.3,2.4-0.9,3.1c-0.6,0.7-1.5,1-2.5,1c-1,0-1.8-0.3-2.4-1C553,369.4,552.7,368.4,552.7,367z"/>
	<path class="st3" d="M575.9,340.5l13,19.7v-19.9c0-1.3,0.3-2.3,0.8-2.9c0.6-0.6,1.3-1,2.3-1c1,0,1.7,0.3,2.3,1s0.8,1.6,0.8,2.9
		v26.3c0,2.9-1.2,4.4-3.7,4.4c-0.6,0-1.2-0.1-1.6-0.3c-0.5-0.2-0.9-0.5-1.4-0.8s-0.8-0.8-1.2-1.3c-0.4-0.5-0.7-1-1.1-1.6l-12.7-19.5
		v19.6c0,1.3-0.3,2.2-0.9,2.9c-0.6,0.7-1.4,1-2.3,1c-1,0-1.7-0.3-2.3-1c-0.6-0.7-0.9-1.6-0.9-2.9v-25.8c0-1.1,0.1-2,0.4-2.6
		c0.3-0.7,0.8-1.2,1.4-1.7c0.7-0.4,1.4-0.7,2.2-0.7c0.6,0,1.1,0.1,1.6,0.3c0.4,0.2,0.8,0.5,1.1,0.8c0.3,0.3,0.7,0.8,1,1.3
		C575.2,339.4,575.5,340,575.9,340.5z"/>
	<path class="st3" d="M611.5,340.5l13,19.7v-19.9c0-1.3,0.3-2.3,0.8-2.9c0.6-0.6,1.3-1,2.3-1c1,0,1.7,0.3,2.3,1s0.8,1.6,0.8,2.9
		v26.3c0,2.9-1.2,4.4-3.7,4.4c-0.6,0-1.2-0.1-1.6-0.3c-0.5-0.2-0.9-0.5-1.4-0.8s-0.8-0.8-1.2-1.3c-0.4-0.5-0.7-1-1.1-1.6l-12.7-19.5
		v19.6c0,1.3-0.3,2.2-0.9,2.9c-0.6,0.7-1.4,1-2.3,1c-1,0-1.7-0.3-2.3-1c-0.6-0.7-0.9-1.6-0.9-2.9v-25.8c0-1.1,0.1-2,0.4-2.6
		c0.3-0.7,0.8-1.2,1.4-1.7c0.7-0.4,1.4-0.7,2.2-0.7c0.6,0,1.1,0.1,1.6,0.3c0.4,0.2,0.8,0.5,1.1,0.8c0.3,0.3,0.7,0.8,1,1.3
		C610.7,339.4,611.1,340,611.5,340.5z"/>
	<path class="st3" d="M652.9,336.5c3.5,0,6.5,0.7,8.9,2.1c2.5,1.4,4.4,3.4,5.7,6c1.3,2.6,1.9,5.6,1.9,9.2c0,2.6-0.4,4.9-1.1,7.1
		c-0.7,2.1-1.8,4-3.2,5.5s-3.1,2.7-5.2,3.6c-2,0.8-4.4,1.2-7,1.2c-2.6,0-5-0.4-7-1.3c-2.1-0.8-3.8-2-5.2-3.6
		c-1.4-1.5-2.4-3.4-3.1-5.6c-0.7-2.2-1.1-4.5-1.1-7c0-2.6,0.4-4.9,1.1-7.1c0.7-2.1,1.8-4,3.2-5.5c1.4-1.5,3.1-2.7,5.1-3.5
		S650.4,336.5,652.9,336.5z M662.6,353.7c0-2.5-0.4-4.6-1.2-6.4c-0.8-1.8-1.9-3.2-3.4-4.1c-1.5-0.9-3.2-1.4-5.1-1.4
		c-1.4,0-2.6,0.3-3.8,0.8c-1.2,0.5-2.1,1.3-3,2.2s-1.5,2.2-2,3.7c-0.5,1.5-0.7,3.2-0.7,5.1c0,1.9,0.2,3.6,0.7,5.2
		c0.5,1.5,1.2,2.8,2,3.8c0.9,1,1.9,1.8,3,2.3c1.1,0.5,2.4,0.8,3.7,0.8c1.7,0,3.3-0.4,4.8-1.3c1.5-0.9,2.6-2.2,3.5-4
		C662.1,358.6,662.6,356.4,662.6,353.7z"/>
	<path class="st3" d="M679,340.9l7.6,22.5l7.6-22.6c0.4-1.2,0.7-2,0.9-2.5s0.5-0.9,1-1.3s1.1-0.6,1.9-0.6c0.6,0,1.1,0.1,1.6,0.4
		c0.5,0.3,0.9,0.7,1.2,1.2c0.3,0.5,0.4,1,0.4,1.5c0,0.3,0,0.7-0.1,1.1c-0.1,0.4-0.2,0.8-0.3,1.1c-0.1,0.4-0.3,0.8-0.4,1.2l-8.1,21.9
		c-0.3,0.8-0.6,1.6-0.9,2.4c-0.3,0.8-0.6,1.4-1,2s-0.9,1-1.5,1.4c-0.6,0.4-1.4,0.5-2.3,0.5s-1.7-0.2-2.3-0.5
		c-0.6-0.4-1.1-0.8-1.5-1.4c-0.4-0.6-0.7-1.3-1-2c-0.3-0.7-0.6-1.5-0.9-2.4l-8-21.7c-0.1-0.4-0.3-0.8-0.4-1.2
		c-0.1-0.4-0.3-0.8-0.4-1.2c-0.1-0.4-0.1-0.8-0.1-1.1c0-0.8,0.3-1.5,0.9-2.1c0.6-0.6,1.4-1,2.4-1c1.2,0,2,0.4,2.5,1.1
		C678,338.2,678.5,339.4,679,340.9z"/>
	<path class="st3" d="M725.3,366.8l-1.6-4.2h-13.6l-1.6,4.3c-0.6,1.7-1.2,2.8-1.6,3.4c-0.4,0.6-1.2,0.9-2.2,0.9
		c-0.9,0-1.6-0.3-2.3-0.9c-0.7-0.6-1-1.3-1-2.1c0-0.5,0.1-0.9,0.2-1.4s0.4-1.2,0.8-2l8.6-21.8c0.2-0.6,0.5-1.4,0.9-2.3
		s0.7-1.6,1.1-2.2c0.4-0.6,0.9-1,1.5-1.4c0.6-0.4,1.4-0.5,2.3-0.5c0.9,0,1.7,0.2,2.4,0.5c0.6,0.4,1.1,0.8,1.5,1.4s0.7,1.2,1,1.8
		s0.6,1.5,1,2.6l8.8,21.6c0.7,1.6,1,2.8,1,3.6c0,0.8-0.3,1.5-1,2.1c-0.6,0.6-1.4,1-2.3,1c-0.5,0-1-0.1-1.4-0.3s-0.7-0.4-1-0.8
		c-0.3-0.3-0.5-0.8-0.8-1.5C725.7,367.9,725.5,367.3,725.3,366.8z M711.8,357.5h10l-5-13.8L711.8,357.5z"/>
	<path class="st3" d="M755.1,342.6h-7.4V367c0,1.4-0.3,2.4-0.9,3.1c-0.6,0.7-1.4,1-2.4,1c-1,0-1.8-0.3-2.5-1s-0.9-1.7-0.9-3.1v-24.3
		h-7.4c-1.2,0-2-0.3-2.6-0.8c-0.6-0.5-0.8-1.2-0.8-2c0-0.9,0.3-1.6,0.9-2.1c0.6-0.5,1.4-0.8,2.5-0.8h21.6c1.2,0,2,0.3,2.6,0.8
		s0.9,1.2,0.9,2c0,0.8-0.3,1.5-0.9,2C757.2,342.4,756.3,342.6,755.1,342.6z"/>
	<path class="st3" d="M762.9,367v-26.4c0-1.4,0.3-2.4,0.9-3.1c0.6-0.7,1.4-1,2.4-1c1,0,1.8,0.3,2.5,1c0.6,0.7,0.9,1.7,0.9,3.1V367
		c0,1.4-0.3,2.4-0.9,3.1c-0.6,0.7-1.5,1-2.5,1c-1,0-1.8-0.3-2.4-1C763.2,369.4,762.9,368.4,762.9,367z"/>
	<path class="st3" d="M792,336.5c3.5,0,6.5,0.7,8.9,2.1c2.5,1.4,4.4,3.4,5.7,6c1.3,2.6,1.9,5.6,1.9,9.2c0,2.6-0.4,4.9-1.1,7.1
		c-0.7,2.1-1.8,4-3.2,5.5s-3.1,2.7-5.2,3.6c-2,0.8-4.4,1.2-7,1.2c-2.6,0-5-0.4-7-1.3c-2.1-0.8-3.8-2-5.2-3.6
		c-1.4-1.5-2.4-3.4-3.1-5.6c-0.7-2.2-1.1-4.5-1.1-7c0-2.6,0.4-4.9,1.1-7.1c0.7-2.1,1.8-4,3.2-5.5c1.4-1.5,3.1-2.7,5.1-3.5
		S789.5,336.5,792,336.5z M801.7,353.7c0-2.5-0.4-4.6-1.2-6.4c-0.8-1.8-1.9-3.2-3.4-4.1c-1.5-0.9-3.2-1.4-5.1-1.4
		c-1.4,0-2.6,0.3-3.8,0.8c-1.2,0.5-2.1,1.3-3,2.2s-1.5,2.2-2,3.7c-0.5,1.5-0.7,3.2-0.7,5.1c0,1.9,0.2,3.6,0.7,5.2
		c0.5,1.5,1.2,2.8,2,3.8c0.9,1,1.9,1.8,3,2.3c1.1,0.5,2.4,0.8,3.7,0.8c1.7,0,3.3-0.4,4.8-1.3c1.5-0.9,2.6-2.2,3.5-4
		C801.2,358.6,801.7,356.4,801.7,353.7z"/>
	<path class="st3" d="M823.2,340.5l13,19.7v-19.9c0-1.3,0.3-2.3,0.8-2.9c0.6-0.6,1.3-1,2.3-1c1,0,1.7,0.3,2.3,1s0.8,1.6,0.8,2.9
		v26.3c0,2.9-1.2,4.4-3.7,4.4c-0.6,0-1.2-0.1-1.6-0.3c-0.5-0.2-0.9-0.5-1.4-0.8s-0.8-0.8-1.2-1.3c-0.4-0.5-0.7-1-1.1-1.6l-12.7-19.5
		v19.6c0,1.3-0.3,2.2-0.9,2.9c-0.6,0.7-1.4,1-2.3,1c-1,0-1.7-0.3-2.3-1c-0.6-0.7-0.9-1.6-0.9-2.9v-25.8c0-1.1,0.1-2,0.4-2.6
		c0.3-0.7,0.8-1.2,1.4-1.7c0.7-0.4,1.4-0.7,2.2-0.7c0.6,0,1.1,0.1,1.6,0.3c0.4,0.2,0.8,0.5,1.1,0.8c0.3,0.3,0.7,0.8,1,1.3
		C822.5,339.4,822.8,340,823.2,340.5z"/>
	<path class="st3" d="M875.4,360.5c0,2-0.5,3.8-1.6,5.5s-2.6,2.9-4.6,3.8s-4.4,1.4-7.2,1.4c-3.3,0-6-0.6-8.2-1.9
		c-1.5-0.9-2.8-2.1-3.7-3.6c-1-1.5-1.4-3-1.4-4.4c0-0.8,0.3-1.5,0.9-2.1c0.6-0.6,1.3-0.9,2.2-0.9c0.7,0,1.3,0.2,1.8,0.7
		c0.5,0.5,0.9,1.1,1.3,2c0.4,1.1,0.9,2,1.4,2.7s1.2,1.3,2.1,1.8c0.9,0.5,2.1,0.7,3.5,0.7c2,0,3.6-0.5,4.9-1.4s1.9-2.1,1.9-3.5
		c0-1.1-0.3-2-1-2.7s-1.6-1.2-2.6-1.6c-1.1-0.4-2.5-0.8-4.3-1.2c-2.4-0.6-4.4-1.2-6-2c-1.6-0.8-2.9-1.8-3.9-3.1s-1.4-2.9-1.4-4.9
		c0-1.8,0.5-3.5,1.5-4.9c1-1.4,2.5-2.5,4.4-3.3c1.9-0.8,4.1-1.2,6.7-1.2c2.1,0,3.8,0.3,5.3,0.8c1.5,0.5,2.7,1.2,3.7,2
		c1,0.8,1.7,1.7,2.2,2.7c0.5,0.9,0.7,1.8,0.7,2.7c0,0.8-0.3,1.5-0.9,2.2s-1.3,1-2.1,1c-0.8,0-1.4-0.2-1.8-0.6
		c-0.4-0.4-0.8-1-1.3-1.9c-0.6-1.3-1.3-2.3-2.2-3c-0.9-0.7-2.2-1.1-4.1-1.1c-1.8,0-3.2,0.4-4.2,1.2c-1.1,0.8-1.6,1.7-1.6,2.8
		c0,0.7,0.2,1.2,0.5,1.7c0.4,0.5,0.9,0.9,1.5,1.3c0.6,0.4,1.3,0.6,1.9,0.8s1.7,0.5,3.2,0.9c1.9,0.4,3.6,0.9,5.1,1.5
		c1.5,0.5,2.8,1.2,3.9,1.9c1.1,0.8,1.9,1.7,2.5,2.9C875.1,357.4,875.4,358.8,875.4,360.5z"/>
</g>
</svg>
