<?xml version="1.0" encoding="utf-8"?>
<!-- Generator: Adobe Illustrator 20.1.0, SVG Export Plug-In . SVG Version: 6.00 Build 0)  -->
<!DOCTYPE svg PUBLIC "-//W3C//DTD SVG 1.1//EN" "http://www.w3.org/Graphics/SVG/1.1/DTD/svg11.dtd">
<svg version="1.1" id="Laag_1" xmlns="http://www.w3.org/2000/svg" xmlns:xlink="http://www.w3.org/1999/xlink" x="0px" y="0px"
	 viewBox="0 0 898 304" style="enable-background:new 0 0 898 304;" xml:space="preserve">
<style type="text/css">
	.st0{fill:#E0303B;}
	.st1{fill:#3E6AAF;}
	.st2{fill:#972557;}
	.st3{fill:#FFFFFF;}
</style>
<g>
	<path class="st0" d="M200.8,199.8c-1.6,0.4-4.1,0.9-7.4,1.3c-3.4,0.4-6.7,0.6-10,0.6s-6.2-0.3-8.7-0.8s-4.6-1.4-6.4-2.7
		c-1.7-1.3-3-3.1-3.9-5.4s-1.3-5.3-1.3-9.1v-114c1.6-0.3,4.1-0.7,7.6-1.2s6.8-0.8,9.9-0.8c3.3,0,6.2,0.3,8.7,0.8s4.6,1.4,6.4,2.7
		c1.7,1.3,3,3.1,3.9,5.4s1.3,5.3,1.3,9.1v114.1L200.8,199.8L200.8,199.8z"/>
	<path class="st0" d="M158.5,141.3c-0.4,0.2-1,0.4-1.8,0.6c-0.8,0.2-1.6,0.3-2.4,0.3s-1.5-0.1-2.1-0.4c-0.6-0.3-1.1-0.7-1.5-1.4
		s-0.7-1.5-0.9-2.7s-0.3-2.7-0.3-4.5v-57c0.4-0.1,1-0.3,1.8-0.6s1.6-0.4,2.3-0.4c0.8,0,1.5,0.1,2.1,0.4s1.1,0.7,1.5,1.4
		s0.7,1.5,0.9,2.7s0.3,2.7,0.3,4.5L158.5,141.3L158.5,141.3z"/>
	<path class="st0" d="M214,141.3c-0.4,0.2-1,0.4-1.8,0.6c-0.8,0.2-1.6,0.3-2.4,0.3s-1.5-0.1-2.1-0.4c-0.6-0.3-1.1-0.7-1.5-1.4
		c-0.4-0.6-0.7-1.5-0.9-2.7s-0.3-2.7-0.3-4.5v-57c0.4-0.1,1-0.3,1.8-0.6s1.6-0.4,2.3-0.4c0.8,0,1.5,0.1,2.1,0.4s1.1,0.7,1.5,1.4
		s0.7,1.5,0.9,2.7s0.3,2.7,0.3,4.5L214,141.3L214,141.3z"/>
	<path class="st1" d="M272.7,158v41.4c-1.6,0.4-4.1,0.9-7.4,1.3c-3.4,0.4-6.7,0.6-10,0.6s-6.2-0.3-8.7-0.8s-4.6-1.4-6.3-2.7
		s-2.9-3.1-3.8-5.4s-1.3-5.3-1.3-9.1V81.8c0-3,0.8-5.4,2.5-7c1.7-1.7,3.9-3,6.8-4c4.9-1.7,10.6-3,17.1-3.8
		c6.5-0.8,13.4-1.2,20.7-1.2c19.9,0,34.8,4.2,44.9,12.5s15.1,19.6,15.1,33.9c0,8.9-2.3,16.5-6.9,22.9c-4.6,6.3-10.1,11.2-16.4,14.7
		c5.2,7.1,10.3,13.7,15.3,19.9s9,11.8,11.9,16.8c-1.4,5-4.1,8.9-7.9,11.5s-8.1,4-12.8,4c-3.2,0-5.9-0.4-8.2-1.1
		c-2.3-0.7-4.3-1.7-6-3s-3.3-2.9-4.8-4.7c-1.4-1.9-2.8-3.9-4.1-6l-18.1-29.1L272.7,158L272.7,158z M286.3,129.3
		c5.5,0,9.8-1.4,12.9-4.2s4.8-6.9,4.8-12.4s-1.8-9.6-5.3-12.4s-9.1-4.2-16.7-4.2c-2.2,0-3.9,0.1-5.2,0.2c-1.3,0.1-2.7,0.4-4.3,0.6
		v32.4H286.3L286.3,129.3z"/>
	<path class="st1" d="M420.5,148.3c-6.3-2.2-12.1-4.4-17.3-6.6c-5.2-2.2-9.6-4.9-13.4-8.1c-3.7-3.2-6.7-6.9-8.7-11.3
		c-2.1-4.4-3.1-9.7-3.1-16.1c0-12.2,4.7-22,14.1-29.4c9.4-7.3,22.6-11,39.6-11c6.2,0,11.9,0.4,17.3,1.3c5.3,0.9,9.9,2.2,13.7,4
		c3.8,1.8,6.8,4.1,9,6.9s3.2,6.1,3.2,9.8s-0.9,6.9-2.6,9.6s-3.8,4.9-6.3,6.8c-3.2-2-7.4-3.8-12.7-5.3c-5.3-1.5-11.2-2.3-17.5-2.3
		c-6.5,0-11.2,0.9-14.2,2.7s-4.5,4.1-4.5,6.8c0,2.2,0.9,3.9,2.8,5.3s4.7,2.6,8.4,3.8l11.4,3.7c13.5,4.3,23.9,9.8,31.2,16.5
		c7.3,6.7,10.9,15.8,10.9,27.3c0,12.2-4.8,22.1-14.5,29.7c-9.6,7.6-23.8,11.3-42.5,11.3c-6.6,0-12.8-0.5-18.5-1.6
		s-10.6-2.7-14.9-4.8c-4.2-2.1-7.6-4.7-9.9-7.8c-2.4-3.1-3.6-6.7-3.6-10.7c0-4.2,1.2-7.7,3.7-10.7c2.4-3,5.1-5.2,8-6.8
		c4,3.2,9,5.9,14.8,8.2s12.2,3.5,19.1,3.5c7,0,12-1.1,14.9-3.2c2.9-2.2,4.3-4.7,4.3-7.6s-1.2-5.1-3.5-6.6s-5.5-3-9.7-4.4
		L420.5,148.3z"/>
	<path class="st1" d="M544.5,151.7v47.7c-1.6,0.4-4.1,0.9-7.6,1.3s-6.8,0.6-10.1,0.6s-6.2-0.3-8.7-0.8s-4.6-1.4-6.4-2.7
		c-1.7-1.3-3-3.1-3.9-5.4s-1.3-5.3-1.3-9.1v-114c1.6-0.3,4.1-0.7,7.6-1.2c3.5-0.5,6.8-0.8,9.9-0.8c3.3,0,6.2,0.3,8.7,0.8
		s4.6,1.4,6.4,2.7c1.7,1.3,3,3.1,3.9,5.4s1.3,5.3,1.3,9.1v34.3L589.2,68c9.8,0,16.8,1.8,21,5.5s6.4,8,6.4,13.1
		c0,3.7-0.9,7.3-2.8,10.6c-1.9,3.3-4.9,7.1-9.1,11.2l-27,27c3.6,4,7.3,8.1,11.2,12.3s7.7,8.3,11.4,12.4c3.7,4.1,7.4,8,10.9,11.8
		c3.5,3.7,6.7,7.1,9.6,10.1c0,3.2-0.6,6-1.7,8.4c-1.2,2.5-2.7,4.5-4.6,6.3c-1.9,1.7-4.1,3-6.6,3.9c-2.4,0.9-5,1.3-7.8,1.3
		c-5.9,0-10.7-1.5-14.5-4.4c-3.7-3-7.3-6.4-10.8-10.5L544.5,151.7z"/>
	<path class="st1" d="M645.6,89.6c0-6.2,1.8-11.1,5.4-14.7c3.6-3.6,8.5-5.4,14.7-5.4h71.2c1,1.6,1.9,3.7,2.7,6.3s1.2,5.3,1.2,8.2
		c0,5.5-1.2,9.4-3.6,11.7c-2.4,2.3-5.5,3.5-9.4,3.5h-45.5v20.1h48.6c1,1.6,1.9,3.6,2.7,6.1s1.2,5.2,1.2,8.1c0,5.5-1.2,9.4-3.5,11.7
		s-5.4,3.5-9.3,3.5h-39.7v22.7h55.5c1,1.6,1.9,3.7,2.7,6.3s1.2,5.3,1.2,8.2c0,5.5-1.2,9.4-3.6,11.8c-2.4,2.4-5.5,3.6-9.4,3.6h-63
		c-6.2,0-11.1-1.8-14.7-5.4c-3.6-3.6-5.4-8.5-5.4-14.7L645.6,89.6L645.6,89.6z"/>
</g>
<g>
	<path class="st1" d="M66.5,203.5c-2.5,0-5.4-0.1-8.7-0.2c-3.3-0.1-6.8-0.4-10.3-0.9c-3.5-0.4-7.1-1-10.5-1.6
		c-3.5-0.7-6.7-1.6-9.6-2.7c-8-3-11.9-8.3-11.9-15.8V80.8c0-3,0.8-5.4,2.5-7.1s3.9-3,6.8-4c4.9-1.7,11.1-3,18.4-3.8
		c7.4-0.8,15-1.2,22.8-1.2c18.5,0,32.8,3.1,42.8,9.3s15,15.8,15,28.9c0,6.5-1.9,12.1-5.6,16.8c-3.8,4.7-8.8,8.1-15.2,10.3
		c7.2,2,13.3,5.7,18.1,11.1c4.8,5.4,7.3,12.1,7.3,20.2c0,14.3-5.3,24.9-16,31.8S86.4,203.5,66.5,203.5z M52.4,119.9h15.8
		c6.2,0,10.7-1.2,13.6-3.5c2.8-2.3,4.2-5.7,4.2-10.2c0-3.9-1.6-7-4.9-9.3s-8.1-3.5-14.7-3.5c-2.2,0-4.7,0.1-7.5,0.2s-5,0.4-6.6,0.7
		L52.4,119.9L52.4,119.9z M52.4,172.9c2,0.6,4.6,1,7.8,1.2s6.2,0.3,9.1,0.3c5.8,0,10.6-1.2,14.4-3.6s5.8-6.1,5.8-11.2
		c0-4.8-1.6-8.2-4.8-10.2c-3.2-2-8-3-14.5-3H52.4V172.9z"/>
</g>
<g>
	<path class="st1" d="M884.8,195c-2,2-5,3.6-8.8,4.7s-8.4,1.6-13.8,1.6c-5.4,0-10.4-0.8-15.2-2.4s-8.7-5.4-11.7-11.5l-21.5-43.8
		c-2.2-4.5-4.1-8.7-5.9-12.7c-1.7-4-3.6-8.6-5.6-13.8l-1.3,0.2c0.6,7.8,0.9,15.8,1,23.9c0.1,8.1,0.1,16.1,0.1,23.9v33.6
		c-1.6,0.4-4,0.9-7.3,1.3s-6.5,0.7-9.7,0.7s-6-0.2-8.5-0.7c-2.5-0.4-4.5-1.3-6.1-2.6s-2.8-3.1-3.7-5.3s-1.3-5.2-1.3-8.8V74.8
		c2-2.9,5.1-5.1,9.3-6.5s8.7-2.2,13.5-2.2c5.4,0,10.5,0.8,15.3,2.5s8.7,5.5,11.6,11.4l21.7,43.8c2.2,4.5,4.1,8.7,5.9,12.7
		c1.7,4,3.6,8.6,5.6,13.8l1.1-0.2c-0.6-7.8-0.9-15.6-1.1-23.4c-0.1-7.8-0.2-15.6-0.2-23.4V68.1c1.6-0.4,4-0.9,7.3-1.3
		s6.5-0.7,9.7-0.7c6.4,0,11.2,1.1,14.5,3.4c3.3,2.2,5,6.9,5,14V195H884.8z"/>
</g>
<circle class="st0" cx="180.6" cy="34" r="22.1"/>
<path class="st2" d="M857.2,294.3H43.1c-16.7,0-30.4-13.7-30.4-30.4v-6.3c0-16.7,13.7-30.4,30.4-30.4h814.1
	c16.7,0,30.4,13.7,30.4,30.4v6.3C887.6,280.6,873.9,294.3,857.2,294.3z"/>
<g>
	<path class="st3" d="M60.9,249v9.6h14.6V249c0-1.4,0.3-2.4,0.9-3.1s1.4-1,2.4-1s1.8,0.3,2.5,1c0.6,0.7,0.9,1.7,0.9,3.1v26.4
		c0,1.4-0.3,2.4-1,3.1c-0.6,0.7-1.5,1-2.5,1s-1.8-0.3-2.4-1s-0.9-1.7-0.9-3.1v-11.3H60.9v11.3c0,1.4-0.3,2.4-1,3.1
		c-0.6,0.7-1.5,1-2.5,1s-1.8-0.3-2.4-1s-0.9-1.7-0.9-3.1V249c0-1.4,0.3-2.4,0.9-3.1s1.4-1,2.5-1c1,0,1.8,0.3,2.5,1
		C60.6,246.6,60.9,247.6,60.9,249z"/>
	<path class="st3" d="M89.7,265.1V249c0-1.4,0.3-2.4,0.9-3.1s1.4-1,2.4-1c1.1,0,1.9,0.3,2.5,1s0.9,1.7,0.9,3.1v16.5
		c0,1.9,0.2,3.4,0.6,4.7s1.2,2.2,2.2,2.9c1.1,0.7,2.6,1,4.5,1c2.7,0,4.5-0.7,5.6-2.1s1.6-3.5,1.6-6.4V249c0-1.4,0.3-2.4,0.9-3.1
		c0.6-0.7,1.4-1,2.4-1s1.8,0.3,2.5,1s0.9,1.7,0.9,3.1v16.1c0,2.6-0.3,4.8-0.8,6.6c-0.5,1.8-1.5,3.3-2.9,4.6c-1.2,1.1-2.6,2-4.2,2.5
		s-3.5,0.8-5.7,0.8c-2.6,0-4.8-0.3-6.6-0.8c-1.9-0.6-3.4-1.4-4.5-2.6c-1.2-1.2-2-2.7-2.6-4.5S89.7,267.6,89.7,265.1z"/>
	<path class="st3" d="M136.5,273.9l-5.4-21.3v23.1c0,1.3-0.3,2.2-0.9,2.9s-1.3,1-2.3,1c-0.9,0-1.7-0.3-2.2-0.9
		c-0.6-0.6-0.9-1.6-0.9-2.9v-26.5c0-1.5,0.4-2.4,1.1-3c0.8-0.5,1.8-0.8,3.1-0.8h2.1c1.3,0,2.2,0.1,2.8,0.3s1,0.6,1.3,1.2
		s0.6,1.6,0.9,2.9l4.9,18.3l4.9-18.3c0.4-1.3,0.7-2.3,0.9-2.9c0.3-0.6,0.7-1,1.3-1.2s1.5-0.3,2.8-0.3h2.1c1.3,0,2.3,0.3,3.1,0.8
		s1.1,1.5,1.1,3v26.5c0,1.3-0.3,2.2-0.9,2.9s-1.3,1-2.3,1c-0.9,0-1.6-0.3-2.2-1s-0.9-1.6-0.9-2.9v-23.1l-5.4,21.3
		c-0.4,1.4-0.6,2.4-0.9,3.1c-0.2,0.6-0.6,1.2-1.2,1.8s-1.4,0.8-2.5,0.8c-0.8,0-1.5-0.2-2-0.5s-1-0.8-1.3-1.3s-0.5-1.1-0.7-1.8
		C136.9,275.3,136.7,274.6,136.5,273.9z"/>
	<path class="st3" d="M185.6,275.2L184,271h-13.6l-1.6,4.3c-0.6,1.7-1.2,2.8-1.6,3.4c-0.4,0.6-1.2,0.9-2.2,0.9
		c-0.9,0-1.6-0.3-2.3-0.9s-1-1.3-1-2.1c0-0.5,0.1-0.9,0.2-1.4c0.2-0.5,0.4-1.2,0.8-2l8.6-21.8c0.2-0.6,0.5-1.4,0.9-2.3
		s0.7-1.6,1.1-2.2c0.4-0.6,0.9-1,1.5-1.4s1.4-0.5,2.3-0.5c0.9,0,1.7,0.2,2.4,0.5c0.6,0.4,1.1,0.8,1.5,1.4s0.7,1.2,1,1.8
		s0.6,1.5,1,2.6l8.8,21.6c0.7,1.6,1,2.8,1,3.6c0,0.8-0.3,1.5-1,2.1c-0.6,0.6-1.4,1-2.3,1c-0.5,0-1-0.1-1.4-0.3
		c-0.4-0.2-0.7-0.4-1-0.8c-0.3-0.3-0.5-0.8-0.8-1.5C186.1,276.3,185.9,275.7,185.6,275.2z M172.2,265.9h10l-5-13.8L172.2,265.9z"/>
	<path class="st3" d="M206.7,248.9l13,19.7v-19.9c0-1.3,0.3-2.3,0.8-2.9c0.6-0.6,1.3-1,2.3-1s1.7,0.3,2.3,1c0.6,0.6,0.8,1.6,0.8,2.9
		V275c0,2.9-1.2,4.4-3.7,4.4c-0.6,0-1.2-0.1-1.6-0.3c-0.5-0.2-0.9-0.5-1.4-0.8c-0.4-0.4-0.8-0.8-1.2-1.3s-0.7-1-1.1-1.6l-12.7-19.5
		v19.6c0,1.3-0.3,2.2-0.9,2.9c-0.6,0.7-1.4,1-2.3,1c-1,0-1.7-0.3-2.3-1s-0.9-1.6-0.9-2.9v-25.8c0-1.1,0.1-2,0.4-2.6
		c0.3-0.7,0.8-1.2,1.4-1.7c0.7-0.4,1.4-0.7,2.2-0.7c0.6,0,1.1,0.1,1.6,0.3s0.8,0.5,1.1,0.8s0.7,0.8,1,1.3
		C206,247.8,206.3,248.4,206.7,248.9z"/>
	<path class="st3" d="M254.2,264.6h-2.4v10.8c0,1.4-0.3,2.5-0.9,3.1c-0.6,0.7-1.4,1-2.4,1c-1.1,0-1.9-0.4-2.5-1.1s-0.9-1.7-0.9-3.1
		v-25.8c0-1.5,0.3-2.5,1-3.2s1.7-1,3.2-1h11c1.5,0,2.8,0.1,3.9,0.2s2.1,0.4,2.9,0.8c1.1,0.4,2,1.1,2.8,1.9s1.4,1.8,1.8,2.9
		s0.6,2.2,0.6,3.5c0,2.5-0.7,4.5-2.1,6s-3.5,2.6-6.4,3.2c1.2,0.6,2.4,1.6,3.5,2.8c1.1,1.2,2.1,2.6,2.9,4c0.9,1.4,1.5,2.7,2,3.8
		s0.7,1.9,0.7,2.3s-0.1,0.9-0.4,1.3s-0.7,0.8-1.2,1c-0.5,0.3-1.1,0.4-1.7,0.4c-0.8,0-1.4-0.2-1.9-0.5c-0.5-0.4-1-0.8-1.3-1.4
		c-0.4-0.5-0.9-1.4-1.5-2.4l-2.7-4.5c-1-1.7-1.8-2.9-2.6-3.8c-0.8-0.9-1.6-1.5-2.3-1.8C256.4,264.8,255.4,264.6,254.2,264.6z
		 M258.1,250.5h-6.3v9.2h6.1c1.6,0,3-0.1,4.1-0.4s2-0.8,2.5-1.4s0.9-1.6,0.9-2.8c0-0.9-0.2-1.7-0.7-2.5c-0.5-0.7-1.1-1.2-2-1.6
		C262,250.7,260.5,250.5,258.1,250.5z"/>
	<path class="st3" d="M300.9,250.7h-15.3v8.2h14.1c1,0,1.8,0.2,2.3,0.7s0.8,1.1,0.8,1.8s-0.3,1.4-0.8,1.9s-1.3,0.7-2.3,0.7h-14.1
		v9.5h15.8c1.1,0,1.9,0.2,2.4,0.7s0.8,1.2,0.8,2s-0.3,1.4-0.8,1.9s-1.3,0.7-2.4,0.7H283c-1.5,0-2.5-0.3-3.2-1s-1-1.7-1-3.2v-25.2
		c0-1,0.1-1.8,0.4-2.4s0.7-1.1,1.4-1.3c0.6-0.3,1.4-0.4,2.4-0.4h17.9c1.1,0,1.9,0.2,2.4,0.7s0.8,1.1,0.8,1.9s-0.3,1.4-0.8,1.9
		C302.7,250.4,301.9,250.7,300.9,250.7z"/>
	<path class="st3" d="M335.4,268.9c0,2-0.5,3.8-1.6,5.5s-2.6,2.9-4.6,3.8s-4.4,1.4-7.2,1.4c-3.3,0-6-0.6-8.2-1.9
		c-1.5-0.9-2.8-2.1-3.7-3.6c-1-1.5-1.4-3-1.4-4.4c0-0.8,0.3-1.5,0.9-2.1s1.3-0.9,2.2-0.9c0.7,0,1.3,0.2,1.8,0.7s0.9,1.1,1.3,2
		c0.4,1.1,0.9,2,1.4,2.7s1.2,1.3,2.1,1.8s2.1,0.7,3.5,0.7c2,0,3.6-0.5,4.9-1.4s1.9-2.1,1.9-3.5c0-1.1-0.3-2-1-2.7s-1.6-1.2-2.6-1.6
		c-1.1-0.4-2.5-0.8-4.3-1.2c-2.4-0.6-4.4-1.2-6-2s-2.9-1.8-3.9-3.1s-1.4-2.9-1.4-4.9c0-1.8,0.5-3.5,1.5-4.9s2.5-2.5,4.4-3.3
		s4.1-1.2,6.7-1.2c2.1,0,3.8,0.3,5.3,0.8s2.7,1.2,3.7,2s1.7,1.7,2.2,2.7c0.5,0.9,0.7,1.8,0.7,2.7c0,0.8-0.3,1.5-0.9,2.2
		s-1.3,1-2.1,1c-0.8,0-1.4-0.2-1.8-0.6s-0.8-1-1.3-1.9c-0.6-1.3-1.3-2.3-2.2-3c-0.9-0.7-2.2-1.1-4.1-1.1c-1.8,0-3.2,0.4-4.2,1.2
		c-1.1,0.8-1.6,1.7-1.6,2.8c0,0.7,0.2,1.2,0.5,1.7c0.4,0.5,0.9,0.9,1.5,1.3s1.3,0.6,1.9,0.8c0.7,0.2,1.7,0.5,3.2,0.9
		c1.9,0.4,3.6,0.9,5.1,1.5c1.5,0.5,2.8,1.2,3.9,1.9c1.1,0.8,1.9,1.7,2.5,2.9C335.1,265.8,335.4,267.2,335.4,268.9z"/>
	<path class="st3" d="M355.9,244.9c3.5,0,6.5,0.7,8.9,2.1s4.4,3.4,5.7,6c1.3,2.6,1.9,5.6,1.9,9.2c0,2.6-0.4,4.9-1.1,7.1
		c-0.7,2.1-1.8,4-3.2,5.5c-1.4,1.6-3.1,2.7-5.2,3.6c-2,0.8-4.4,1.2-7,1.2s-5-0.4-7-1.3c-2.1-0.8-3.8-2-5.2-3.6
		c-1.4-1.5-2.4-3.4-3.1-5.6s-1.1-4.5-1.1-7c0-2.6,0.4-4.9,1.1-7.1c0.7-2.1,1.8-4,3.2-5.5c1.4-1.5,3.1-2.7,5.1-3.5
		S353.4,244.9,355.9,244.9z M365.6,262.1c0-2.5-0.4-4.6-1.2-6.4c-0.8-1.8-1.9-3.2-3.4-4.1s-3.2-1.4-5.1-1.4c-1.4,0-2.6,0.3-3.8,0.8
		c-1.2,0.5-2.1,1.3-3,2.2c-0.8,1-1.5,2.2-2,3.7c-0.5,1.5-0.7,3.2-0.7,5.1s0.2,3.6,0.7,5.2c0.5,1.5,1.2,2.8,2,3.8
		c0.9,1,1.9,1.8,3,2.3s2.4,0.8,3.7,0.8c1.7,0,3.3-0.4,4.8-1.3s2.6-2.2,3.5-4C365.2,267,365.6,264.8,365.6,262.1z"/>
	<path class="st3" d="M378.3,265.1V249c0-1.4,0.3-2.4,0.9-3.1s1.4-1,2.4-1c1.1,0,1.9,0.3,2.5,1s0.9,1.7,0.9,3.1v16.5
		c0,1.9,0.2,3.4,0.6,4.7s1.2,2.2,2.2,2.9c1.1,0.7,2.6,1,4.5,1c2.7,0,4.5-0.7,5.6-2.1s1.6-3.5,1.6-6.4V249c0-1.4,0.3-2.4,0.9-3.1
		s1.4-1,2.4-1s1.8,0.3,2.5,1s0.9,1.7,0.9,3.1v16.1c0,2.6-0.3,4.8-0.8,6.6c-0.5,1.8-1.5,3.3-2.9,4.6c-1.2,1.1-2.6,2-4.2,2.5
		s-3.5,0.8-5.7,0.8c-2.6,0-4.8-0.3-6.6-0.8c-1.9-0.6-3.4-1.4-4.5-2.6c-1.2-1.2-2-2.7-2.6-4.5S378.3,267.6,378.3,265.1z"/>
	<path class="st3" d="M422.9,264.6h-2.4v10.8c0,1.4-0.3,2.5-0.9,3.1c-0.6,0.7-1.4,1-2.4,1c-1.1,0-1.9-0.4-2.5-1.1s-0.9-1.7-0.9-3.1
		v-25.8c0-1.5,0.3-2.5,1-3.2s1.7-1,3.2-1h11c1.5,0,2.8,0.1,3.9,0.2s2.1,0.4,2.9,0.8c1.1,0.4,2,1.1,2.8,1.9s1.4,1.8,1.8,2.9
		s0.6,2.2,0.6,3.5c0,2.5-0.7,4.5-2.1,6s-3.5,2.6-6.4,3.2c1.2,0.6,2.4,1.6,3.5,2.8c1.1,1.2,2.1,2.6,2.9,4c0.9,1.4,1.5,2.7,2,3.8
		s0.7,1.9,0.7,2.3s-0.1,0.9-0.4,1.3s-0.7,0.8-1.2,1c-0.5,0.3-1.1,0.4-1.7,0.4c-0.8,0-1.4-0.2-1.9-0.5c-0.5-0.4-1-0.8-1.3-1.4
		c-0.4-0.5-0.9-1.4-1.5-2.4l-2.7-4.5c-1-1.7-1.8-2.9-2.6-3.8c-0.8-0.9-1.6-1.5-2.3-1.8C425.1,264.8,424.1,264.6,422.9,264.6z
		 M426.8,250.5h-6.3v9.2h6.1c1.6,0,3-0.1,4.1-0.4s2-0.8,2.5-1.4s0.9-1.6,0.9-2.8c0-0.9-0.2-1.7-0.7-2.5c-0.5-0.7-1.1-1.2-2-1.6
		C430.7,250.7,429.2,250.5,426.8,250.5z"/>
	<path class="st3" d="M475.4,268.4c0,1.1-0.3,2.2-0.8,3.5c-0.5,1.2-1.4,2.5-2.5,3.7s-2.6,2.2-4.3,2.9c-1.8,0.7-3.8,1.1-6.1,1.1
		c-1.8,0-3.4-0.2-4.8-0.5s-2.8-0.9-3.9-1.6c-1.2-0.7-2.3-1.6-3.3-2.8c-0.9-1.1-1.6-2.2-2.3-3.5c-0.6-1.3-1.1-2.7-1.4-4.2
		s-0.5-3-0.5-4.7c0-2.7,0.4-5.1,1.2-7.2c0.8-2.1,1.9-4,3.4-5.5s3.2-2.7,5.1-3.5c2-0.8,4.1-1.2,6.3-1.2c2.7,0,5.1,0.5,7.2,1.6
		s3.7,2.4,4.9,4c1.1,1.6,1.7,3.1,1.7,4.5c0,0.8-0.3,1.5-0.8,2.1s-1.2,0.9-2,0.9c-0.9,0-1.5-0.2-2-0.6s-0.9-1.1-1.5-2.1
		c-0.9-1.7-1.9-2.9-3.1-3.7s-2.7-1.2-4.4-1.2c-2.8,0-5,1.1-6.7,3.2s-2.5,5.1-2.5,9c0,2.6,0.4,4.8,1.1,6.5s1.8,3,3.1,3.9
		c1.3,0.9,2.9,1.3,4.7,1.3c2,0,3.6-0.5,4.9-1.5s2.4-2.4,3.1-4.3c0.3-0.9,0.6-1.6,1.1-2.2c0.4-0.6,1.1-0.8,2.1-0.8
		c0.8,0,1.5,0.3,2.1,0.8C475.1,266.8,475.4,267.5,475.4,268.4z"/>
	<path class="st3" d="M503.6,250.7h-15.3v8.2h14.1c1,0,1.8,0.2,2.3,0.7s0.8,1.1,0.8,1.8s-0.3,1.4-0.8,1.9s-1.3,0.7-2.3,0.7h-14.1
		v9.5h15.8c1.1,0,1.9,0.2,2.4,0.7s0.8,1.2,0.8,2s-0.3,1.4-0.8,1.9s-1.3,0.7-2.4,0.7h-18.4c-1.5,0-2.5-0.3-3.2-1s-1-1.7-1-3.2v-25.2
		c0-1,0.1-1.8,0.4-2.4s0.7-1.1,1.4-1.3c0.6-0.3,1.4-0.4,2.4-0.4h17.9c1.1,0,1.9,0.2,2.4,0.7s0.8,1.1,0.8,1.9s-0.3,1.4-0.8,1.9
		C505.5,250.4,504.7,250.7,503.6,250.7z"/>
	<path class="st3" d="M524.7,275.4V249c0-1.4,0.3-2.4,0.9-3.1c0.6-0.7,1.4-1,2.4-1s1.8,0.3,2.5,1c0.6,0.7,0.9,1.7,0.9,3.1v26.4
		c0,1.4-0.3,2.4-0.9,3.1c-0.6,0.7-1.5,1-2.5,1s-1.8-0.3-2.4-1S524.7,276.8,524.7,275.4z"/>
	<path class="st3" d="M547.9,248.9l13,19.7v-19.9c0-1.3,0.3-2.3,0.8-2.9c0.6-0.6,1.3-1,2.3-1s1.7,0.3,2.3,1s0.8,1.6,0.8,2.9V275
		c0,2.9-1.2,4.4-3.7,4.4c-0.6,0-1.2-0.1-1.6-0.3c-0.5-0.2-0.9-0.5-1.4-0.8s-0.8-0.8-1.2-1.3s-0.7-1-1.1-1.6l-12.7-19.5v19.6
		c0,1.3-0.3,2.2-0.9,2.9c-0.6,0.7-1.4,1-2.3,1c-1,0-1.7-0.3-2.3-1s-0.9-1.6-0.9-2.9v-25.8c0-1.1,0.1-2,0.4-2.6
		c0.3-0.7,0.8-1.2,1.4-1.7c0.7-0.4,1.4-0.7,2.2-0.7c0.6,0,1.1,0.1,1.6,0.3c0.4,0.2,0.8,0.5,1.1,0.8s0.7,0.8,1,1.3
		C547.2,247.8,547.5,248.4,547.9,248.9z"/>
	<path class="st3" d="M583.5,248.9l13,19.7v-19.9c0-1.3,0.3-2.3,0.8-2.9c0.6-0.6,1.3-1,2.3-1s1.7,0.3,2.3,1s0.8,1.6,0.8,2.9V275
		c0,2.9-1.2,4.4-3.7,4.4c-0.6,0-1.2-0.1-1.6-0.3c-0.5-0.2-0.9-0.5-1.4-0.8s-0.8-0.8-1.2-1.3s-0.7-1-1.1-1.6L581,255.9v19.6
		c0,1.3-0.3,2.2-0.9,2.9c-0.6,0.7-1.4,1-2.3,1c-1,0-1.7-0.3-2.3-1s-0.9-1.6-0.9-2.9v-25.8c0-1.1,0.1-2,0.4-2.6
		c0.3-0.7,0.8-1.2,1.4-1.7c0.7-0.4,1.4-0.7,2.2-0.7c0.6,0,1.1,0.1,1.6,0.3c0.4,0.2,0.8,0.5,1.1,0.8s0.7,0.8,1,1.3
		C582.7,247.8,583.1,248.4,583.5,248.9z"/>
	<path class="st3" d="M624.9,244.9c3.5,0,6.5,0.7,8.9,2.1c2.5,1.4,4.4,3.4,5.7,6s1.9,5.6,1.9,9.2c0,2.6-0.4,4.9-1.1,7.1
		c-0.7,2.1-1.8,4-3.2,5.5s-3.1,2.7-5.2,3.6c-2,0.8-4.4,1.2-7,1.2s-5-0.4-7-1.3c-2.1-0.8-3.8-2-5.2-3.6c-1.4-1.5-2.4-3.4-3.1-5.6
		c-0.7-2.2-1.1-4.5-1.1-7c0-2.6,0.4-4.9,1.1-7.1c0.7-2.1,1.8-4,3.2-5.5s3.1-2.7,5.1-3.5S622.4,244.9,624.9,244.9z M634.6,262.1
		c0-2.5-0.4-4.6-1.2-6.4c-0.8-1.8-1.9-3.2-3.4-4.1s-3.2-1.4-5.1-1.4c-1.4,0-2.6,0.3-3.8,0.8s-2.1,1.3-3,2.2s-1.5,2.2-2,3.7
		c-0.5,1.5-0.7,3.2-0.7,5.1s0.2,3.6,0.7,5.2c0.5,1.5,1.2,2.8,2,3.8c0.9,1,1.9,1.8,3,2.3s2.4,0.8,3.7,0.8c1.7,0,3.3-0.4,4.8-1.3
		s2.6-2.2,3.5-4C634.1,267,634.6,264.8,634.6,262.1z"/>
	<path class="st3" d="M651,249.3l7.6,22.5l7.6-22.6c0.4-1.2,0.7-2,0.9-2.5s0.5-0.9,1-1.3s1.1-0.6,1.9-0.6c0.6,0,1.1,0.1,1.6,0.4
		s0.9,0.7,1.2,1.2s0.4,1,0.4,1.5c0,0.3,0,0.7-0.1,1.1s-0.2,0.8-0.3,1.1c-0.1,0.4-0.3,0.8-0.4,1.2l-8.1,21.9
		c-0.3,0.8-0.6,1.6-0.9,2.4c-0.3,0.8-0.6,1.4-1,2s-0.9,1-1.5,1.4s-1.4,0.5-2.3,0.5s-1.7-0.2-2.3-0.5c-0.6-0.4-1.1-0.8-1.5-1.4
		s-0.7-1.3-1-2s-0.6-1.5-0.9-2.4l-8-21.7c-0.1-0.4-0.3-0.8-0.4-1.2c-0.1-0.4-0.3-0.8-0.4-1.2c-0.1-0.4-0.1-0.8-0.1-1.1
		c0-0.8,0.3-1.5,0.9-2.1c0.6-0.6,1.4-1,2.4-1c1.2,0,2,0.4,2.5,1.1C650,246.6,650.5,247.8,651,249.3z"/>
	<path class="st3" d="M697.3,275.2l-1.6-4.2h-13.6l-1.6,4.3c-0.6,1.7-1.2,2.8-1.6,3.4c-0.4,0.6-1.2,0.9-2.2,0.9
		c-0.9,0-1.6-0.3-2.3-0.9s-1-1.3-1-2.1c0-0.5,0.1-0.9,0.2-1.4s0.4-1.2,0.8-2l8.6-21.8c0.2-0.6,0.5-1.4,0.9-2.3s0.7-1.6,1.1-2.2
		c0.4-0.6,0.9-1,1.5-1.4s1.4-0.5,2.3-0.5c0.9,0,1.7,0.2,2.4,0.5c0.6,0.4,1.1,0.8,1.5,1.4s0.7,1.2,1,1.8s0.6,1.5,1,2.6l8.8,21.6
		c0.7,1.6,1,2.8,1,3.6c0,0.8-0.3,1.5-1,2.1c-0.6,0.6-1.4,1-2.3,1c-0.5,0-1-0.1-1.4-0.3s-0.7-0.4-1-0.8c-0.3-0.3-0.5-0.8-0.8-1.5
		C697.7,276.3,697.5,275.7,697.3,275.2z M683.8,265.9h10l-5-13.8L683.8,265.9z"/>
	<path class="st3" d="M727.1,251h-7.4v24.4c0,1.4-0.3,2.4-0.9,3.1c-0.6,0.7-1.4,1-2.4,1s-1.8-0.3-2.5-1s-0.9-1.7-0.9-3.1v-24.3h-7.4
		c-1.2,0-2-0.3-2.6-0.8s-0.8-1.2-0.8-2c0-0.9,0.3-1.6,0.9-2.1c0.6-0.5,1.4-0.8,2.5-0.8h21.6c1.2,0,2,0.3,2.6,0.8s0.9,1.2,0.9,2
		s-0.3,1.5-0.9,2C729.2,250.8,728.3,251,727.1,251z"/>
	<path class="st3" d="M734.9,275.4V249c0-1.4,0.3-2.4,0.9-3.1c0.6-0.7,1.4-1,2.4-1s1.8,0.3,2.5,1c0.6,0.7,0.9,1.7,0.9,3.1v26.4
		c0,1.4-0.3,2.4-0.9,3.1c-0.6,0.7-1.5,1-2.5,1s-1.8-0.3-2.4-1S734.9,276.8,734.9,275.4z"/>
	<path class="st3" d="M764,244.9c3.5,0,6.5,0.7,8.9,2.1c2.5,1.4,4.4,3.4,5.7,6s1.9,5.6,1.9,9.2c0,2.6-0.4,4.9-1.1,7.1
		c-0.7,2.1-1.8,4-3.2,5.5s-3.1,2.7-5.2,3.6c-2,0.8-4.4,1.2-7,1.2s-5-0.4-7-1.3c-2.1-0.8-3.8-2-5.2-3.6c-1.4-1.5-2.4-3.4-3.1-5.6
		c-0.7-2.2-1.1-4.5-1.1-7c0-2.6,0.4-4.9,1.1-7.1c0.7-2.1,1.8-4,3.2-5.5s3.1-2.7,5.1-3.5S761.5,244.9,764,244.9z M773.7,262.1
		c0-2.5-0.4-4.6-1.2-6.4c-0.8-1.8-1.9-3.2-3.4-4.1s-3.2-1.4-5.1-1.4c-1.4,0-2.6,0.3-3.8,0.8s-2.1,1.3-3,2.2s-1.5,2.2-2,3.7
		c-0.5,1.5-0.7,3.2-0.7,5.1s0.2,3.6,0.7,5.2c0.5,1.5,1.2,2.8,2,3.8c0.9,1,1.9,1.8,3,2.3s2.4,0.8,3.7,0.8c1.7,0,3.3-0.4,4.8-1.3
		s2.6-2.2,3.5-4C773.2,267,773.7,264.8,773.7,262.1z"/>
	<path class="st3" d="M795.2,248.9l13,19.7v-19.9c0-1.3,0.3-2.3,0.8-2.9c0.6-0.6,1.3-1,2.3-1s1.7,0.3,2.3,1s0.8,1.6,0.8,2.9V275
		c0,2.9-1.2,4.4-3.7,4.4c-0.6,0-1.2-0.1-1.6-0.3c-0.5-0.2-0.9-0.5-1.4-0.8s-0.8-0.8-1.2-1.3s-0.7-1-1.1-1.6l-12.7-19.5v19.6
		c0,1.3-0.3,2.2-0.9,2.9c-0.6,0.7-1.4,1-2.3,1c-1,0-1.7-0.3-2.3-1s-0.9-1.6-0.9-2.9v-25.8c0-1.1,0.1-2,0.4-2.6
		c0.3-0.7,0.8-1.2,1.4-1.7c0.7-0.4,1.4-0.7,2.2-0.7c0.6,0,1.1,0.1,1.6,0.3c0.4,0.2,0.8,0.5,1.1,0.8s0.7,0.8,1,1.3
		C794.5,247.8,794.8,248.4,795.2,248.9z"/>
	<path class="st3" d="M847.4,268.9c0,2-0.5,3.8-1.6,5.5s-2.6,2.9-4.6,3.8s-4.4,1.4-7.2,1.4c-3.3,0-6-0.6-8.2-1.9
		c-1.5-0.9-2.8-2.1-3.7-3.6c-1-1.5-1.4-3-1.4-4.4c0-0.8,0.3-1.5,0.9-2.1c0.6-0.6,1.3-0.9,2.2-0.9c0.7,0,1.3,0.2,1.8,0.7
		s0.9,1.1,1.3,2c0.4,1.1,0.9,2,1.4,2.7s1.2,1.3,2.1,1.8c0.9,0.5,2.1,0.7,3.5,0.7c2,0,3.6-0.5,4.9-1.4s1.9-2.1,1.9-3.5
		c0-1.1-0.3-2-1-2.7s-1.6-1.2-2.6-1.6c-1.1-0.4-2.5-0.8-4.3-1.2c-2.4-0.6-4.4-1.2-6-2s-2.9-1.8-3.9-3.1s-1.4-2.9-1.4-4.9
		c0-1.8,0.5-3.5,1.5-4.9s2.5-2.5,4.4-3.3s4.1-1.2,6.7-1.2c2.1,0,3.8,0.3,5.3,0.8s2.7,1.2,3.7,2s1.7,1.7,2.2,2.7
		c0.5,0.9,0.7,1.8,0.7,2.7c0,0.8-0.3,1.5-0.9,2.2s-1.3,1-2.1,1s-1.4-0.2-1.8-0.6c-0.4-0.4-0.8-1-1.3-1.9c-0.6-1.3-1.3-2.3-2.2-3
		s-2.2-1.1-4.1-1.1c-1.8,0-3.2,0.4-4.2,1.2c-1.1,0.8-1.6,1.7-1.6,2.8c0,0.7,0.2,1.2,0.5,1.7c0.4,0.5,0.9,0.9,1.5,1.3
		s1.3,0.6,1.9,0.8s1.7,0.5,3.2,0.9c1.9,0.4,3.6,0.9,5.1,1.5c1.5,0.5,2.8,1.2,3.9,1.9c1.1,0.8,1.9,1.7,2.5,2.9
		C847.1,265.8,847.4,267.2,847.4,268.9z"/>
</g>
</svg>
