<?xml version="1.0" encoding="utf-8"?>
<!-- Generator: Adobe Illustrator 20.1.0, SVG Export Plug-In . SVG Version: 6.00 Build 0)  -->
<!DOCTYPE svg PUBLIC "-//W3C//DTD SVG 1.1//EN" "http://www.w3.org/Graphics/SVG/1.1/DTD/svg11.dtd">
<svg version="1.1" id="Laag_1" xmlns="http://www.w3.org/2000/svg" xmlns:xlink="http://www.w3.org/1999/xlink" x="0px" y="0px"
	 viewBox="0 0 200 200" style="enable-background:new 0 0 200 200;" xml:space="preserve">
<style type="text/css">
	.st0{fill:#FFFFFF;}
	.st1{fill:#3E6AAF;}
</style>
<circle class="st0" cx="100" cy="99.9" r="55.3"/>
<g>
	<path class="st1" d="M146.2,94.8c-0.6-1.8-2-2.7-3.8-2.9c-1.5-0.2-3-0.1-4.4-0.1c-2.4,0.1-4.9,0-7.1-1.1c-3.5-1.7-5.5-4.7-6.9-8.3
		c-1.1-2.8-1-5.5,0.2-8.3c0.8-1.9,1.9-3.6,3-5.3c2.2-3.8,1.7-6-1.8-8.6c-2.1-1.5-4.3-2.6-6.7-3.3c-0.6,0-1.3,0-1.9,0
		c-1.5,0.2-2.5,1.1-3.3,2.3c-0.9,1.4-1.6,2.8-2.4,4.3c-1.4,2.4-3.1,4.5-5.8,5.6c-1.9,0.8-4,1-6.1,1c-4.5-0.1-8.1-1.9-10.4-5.9
		c-0.8-1.4-1.6-2.9-2.4-4.3c-0.9-1.5-1.9-2.8-3.8-3c-0.6,0-1.1,0-1.7,0c-0.8,0.2-1.7,0.2-2.5,0.5c-2.2,1-4.3,2.1-6,3.9
		c-2,2-2.3,3.8-1.1,6.3c0.7,1.4,1.6,2.7,2.4,4.1c1.4,2.5,2.5,5,2,8c-0.6,4.1-2.6,7.3-5.8,9.8c-2.6,2-5.7,2.2-8.8,2
		c-1.5-0.1-2.9-0.1-4.3,0.1c-2,0.3-3.2,1.4-4,3.2c-0.3,0.7-0.2,1.6-0.5,2.3c0,0.3,0,0.6,0,0.9c0.3,0.1,0.2,0.3,0,0.4
		c0,1.4,0,2.8,0,4.2c0.3,0.4,0.3,0.9,0.4,1.4c0.6,2.7,2,3.8,4.7,4.1c1.6,0.2,3.2,0,4.8,0c2.2,0,4.4,0.2,6.4,1.2
		c3.5,1.8,5.4,4.8,6.7,8.3c0.6,1.5,0.8,3.1,0.7,4.7c-0.2,2.4-1.2,4.5-2.4,6.5c-0.7,1.2-1.6,2.4-2.2,3.8c-1.1,2.3-0.8,4.1,1,5.8
		c2.2,2.1,4.7,3.6,7.6,4.4c2.4,0.7,4.1,0,5.5-2c0.3-0.5,0.7-1,0.9-1.5c0.7-1.3,1.4-2.5,2.1-3.8c1.1-1.8,2.4-3.3,4.3-4.3
		c6.3-3.6,14.3-1.5,18,4.7c0.5,0.9,1,1.8,1.5,2.6c0.5,0.9,1,1.8,1.6,2.6c1.2,1.6,2.8,2.3,4.9,1.8c2.7-0.6,5.1-2,7.2-3.7
		c2.7-2.2,3.1-4.3,1.5-7.4c-0.8-1.5-1.7-2.9-2.6-4.4c-0.9-1.6-1.5-3.2-1.6-5.1c-0.4-7.8,5.7-14.3,13.6-14.2c1.8,0,3.6,0.2,5.5,0
		c1.8-0.3,3.2-1.1,3.8-2.9C147.3,101.8,147.3,98.3,146.2,94.8z M99.7,119c-10.5,0.1-19-8.4-19-18.9c-0.1-10.4,8.4-19,18.9-19
		c10.4,0,18.9,8.4,19,18.8C118.6,110.4,110.2,118.9,99.7,119z"/>
	<path class="st1" d="M52.3,98.1c0,0.1,0,0.3,0,0.4C52.4,98.4,52.4,98.3,52.3,98.1z"/>
</g>
<path class="st1" d="M93.4,107.9h3c4.3,0,13.4-3.5,13.4-7.8l0,0c0-4.3-9.1-7.8-13.4-7.8h-3C89.1,92.2,89.1,107.9,93.4,107.9z"/>
</svg>
