<?xml version="1.0" encoding="UTF-8" standalone="no"?>
<!-- Generator: Adobe Illustrator 20.1.0, SVG Export Plug-In . SVG Version: 6.00 Build 0)  -->

<svg
   xmlns:dc="http://purl.org/dc/elements/1.1/"
   xmlns:cc="http://creativecommons.org/ns#"
   xmlns:rdf="http://www.w3.org/1999/02/22-rdf-syntax-ns#"
   xmlns:svg="http://www.w3.org/2000/svg"
   xmlns="http://www.w3.org/2000/svg"
   xmlns:sodipodi="http://sodipodi.sourceforge.net/DTD/sodipodi-0.dtd"
   xmlns:inkscape="http://www.inkscape.org/namespaces/inkscape"
   version="1.1"
   id="Laag_1"
   x="0px"
   y="0px"
   viewBox="0 0 285 39"
   style="enable-background:new 0 0 285 39;"
   xml:space="preserve"
   inkscape:version="0.91 r13725"
   sodipodi:docname="twitter.svg"><metadata
     id="metadata53"><rdf:RDF><cc:Work
         rdf:about=""><dc:format>image/svg+xml</dc:format><dc:type
           rdf:resource="http://purl.org/dc/dcmitype/StillImage" /><dc:title></dc:title></cc:Work></rdf:RDF></metadata><defs
     id="defs51" /><sodipodi:namedview
     pagecolor="#ffffff"
     bordercolor="#666666"
     borderopacity="1"
     objecttolerance="10"
     gridtolerance="10"
     guidetolerance="10"
     inkscape:pageopacity="0"
     inkscape:pageshadow="2"
     inkscape:window-width="640"
     inkscape:window-height="480"
     id="namedview49"
     showgrid="false"
     inkscape:zoom="1.2561404"
     inkscape:cx="142.5"
     inkscape:cy="19.5"
     inkscape:window-x="0"
     inkscape:window-y="0"
     inkscape:window-maximized="0"
     inkscape:current-layer="Laag_1" /><style
     type="text/css"
     id="style3">
	.st0{fill:#E0303B;}
	.st1{fill:#FFFFFF;}
</style><g
     id="g5"><path
       class="st0"
       d="M282,19.6c0,9.1-7.4,16.4-16.4,16.4H18.4C9.4,36,2,28.6,2,19.6v-0.1C2,10.4,9.4,3,18.4,3h247.1   c9.1,0,16.4,7.4,16.4,16.4V19.6z"
       id="path7" /></g><g
     id="g9"><path
       class="st1"
       d="M27.4,15.5c-0.5-3.2,1.6-5.5,3.9-6c1.7-0.3,3.2,0,4.5,1.1c0.4,0.3,0.7,0.4,1.1,0.2c0.9-0.3,1.7-0.6,2.6-1.1   c-0.3,1.2-1,1.9-1.9,2.7c0.9,0.1,1.6-0.4,2.5-0.5c-0.6,0.9-1.3,1.6-2,2.2c-0.4,0.3-0.5,0.6-0.5,1c0,6.5-4.5,13.2-11.8,14.5   c-3.7,0.7-7.1,0.1-10.4-1.8c-0.1-0.1-0.2-0.1-0.4-0.3c2.8,0.2,5.3-0.4,7.4-2.1c-2.8-0.7-4-1.7-4.6-3.6c0.6-0.1,1.3,0.1,2-0.2   c-2.2-0.8-3.5-2.2-3.8-4.5c-0.1-0.5,0-0.6,0.5-0.4c0.5,0.2,1,0.4,1.6,0.4c-2.2-2.3-2.7-4.6-1.4-6.8c2.6,3.1,5.9,4.9,10,5.3   C27,15.7,27.3,15.9,27.4,15.5z"
       id="path11" /><path
       class="st1"
       d="M27.4,15.5c-0.1,0.5-0.4,0.3-0.6,0.2C27,15.6,27.2,15.7,27.4,15.5z"
       id="path13" /></g><g
     id="g15"><path
       class="st1"
       d="M50.2,17.6l2.4,6.7l2.6-7c0.2-0.6,0.4-1,0.6-1.2c0.2-0.2,0.5-0.4,0.9-0.4c0.4,0,0.7,0.1,1,0.4S58,16.7,58,17   c0,0.1,0,0.3-0.1,0.5c0,0.2-0.1,0.3-0.2,0.5c-0.1,0.2-0.1,0.3-0.2,0.5l-2.8,7c-0.1,0.2-0.2,0.5-0.3,0.8s-0.3,0.6-0.4,0.8   c-0.2,0.2-0.3,0.4-0.6,0.5s-0.5,0.2-0.8,0.2c-0.4,0-0.8-0.1-1-0.3c-0.2-0.2-0.4-0.4-0.6-0.6c-0.1-0.2-0.3-0.7-0.6-1.3l-2.8-7   c-0.1-0.2-0.1-0.3-0.2-0.5c-0.1-0.2-0.1-0.4-0.2-0.5s-0.1-0.3-0.1-0.5c0-0.2,0.1-0.4,0.2-0.6c0.1-0.2,0.3-0.4,0.5-0.5   c0.2-0.1,0.5-0.2,0.7-0.2c0.5,0,0.8,0.1,1,0.4C49.7,16.5,49.9,16.9,50.2,17.6z"
       id="path17" /><path
       class="st1"
       d="M70.9,21.8c0,0.9-0.1,1.7-0.4,2.4c-0.3,0.7-0.7,1.4-1.2,1.9c-0.5,0.5-1.1,0.9-1.9,1.2   c-0.7,0.3-1.5,0.4-2.4,0.4c-0.9,0-1.7-0.1-2.4-0.4c-0.7-0.3-1.3-0.7-1.9-1.2c-0.5-0.5-0.9-1.2-1.2-1.9c-0.3-0.7-0.4-1.5-0.4-2.4   c0-0.9,0.1-1.7,0.4-2.5s0.7-1.4,1.2-1.9c0.5-0.5,1.1-0.9,1.9-1.2c0.7-0.3,1.5-0.4,2.4-0.4c0.9,0,1.7,0.1,2.4,0.4   c0.7,0.3,1.4,0.7,1.9,1.2s0.9,1.2,1.2,1.9C70.8,20.1,70.9,20.9,70.9,21.8z M68,21.8c0-1.2-0.3-2.1-0.8-2.8c-0.5-0.7-1.2-1-2.1-1   c-0.6,0-1.1,0.1-1.5,0.4c-0.4,0.3-0.8,0.7-1,1.3c-0.2,0.6-0.4,1.3-0.4,2c0,0.8,0.1,1.4,0.4,2c0.2,0.6,0.6,1,1,1.3   c0.4,0.3,1,0.5,1.5,0.5c0.9,0,1.6-0.3,2.1-1C67.7,23.9,68,22.9,68,21.8z"
       id="path19" /><path
       class="st1"
       d="M73.4,26V13.2c0-0.6,0.1-1,0.4-1.3s0.6-0.5,1.1-0.5s0.8,0.1,1.1,0.4s0.4,0.7,0.4,1.3V26c0,0.6-0.1,1-0.4,1.3   c-0.3,0.3-0.6,0.4-1.1,0.4c-0.4,0-0.8-0.2-1.1-0.5S73.4,26.5,73.4,26z"
       id="path21" /><path
       class="st1"
       d="M90.4,17.9v8.6c0,1-0.1,1.8-0.3,2.5c-0.2,0.7-0.5,1.3-1,1.8s-1.1,0.8-1.8,1c-0.7,0.2-1.7,0.3-2.8,0.3   c-1,0-1.9-0.1-2.7-0.4c-0.8-0.3-1.4-0.7-1.8-1.1s-0.6-0.9-0.6-1.4c0-0.4,0.1-0.7,0.4-0.9c0.2-0.2,0.5-0.3,0.9-0.3   c0.4,0,0.8,0.2,1.1,0.6c0.2,0.2,0.3,0.4,0.5,0.6c0.2,0.2,0.4,0.4,0.6,0.5s0.5,0.2,0.7,0.3c0.3,0.1,0.6,0.1,1,0.1   c0.8,0,1.4-0.1,1.8-0.3s0.7-0.5,0.9-0.9c0.2-0.4,0.3-0.8,0.3-1.2c0-0.4,0.1-1.1,0.1-2.1c-0.5,0.6-1,1.1-1.6,1.4s-1.3,0.5-2.1,0.5   c-1,0-1.9-0.3-2.6-0.8c-0.7-0.5-1.3-1.2-1.7-2.1c-0.4-0.9-0.6-2-0.6-3.1c0-0.9,0.1-1.7,0.4-2.4s0.6-1.3,1-1.8   c0.4-0.5,1-0.9,1.5-1.1c0.6-0.2,1.2-0.4,1.9-0.4c0.8,0,1.6,0.2,2.2,0.5s1.2,0.8,1.7,1.5v-0.4c0-0.5,0.1-0.9,0.4-1.2s0.6-0.4,1-0.4   c0.6,0,0.9,0.2,1.1,0.6C90.3,16.7,90.4,17.2,90.4,17.9z M81.8,21.7c0,1.2,0.3,2.1,0.8,2.7c0.5,0.6,1.2,0.9,2,0.9   c0.5,0,1-0.1,1.4-0.4c0.4-0.3,0.8-0.7,1.1-1.2c0.3-0.5,0.4-1.2,0.4-1.9c0-1.2-0.3-2.1-0.8-2.8c-0.5-0.7-1.2-1-2.1-1   c-0.8,0-1.5,0.3-2,1C82.1,19.6,81.8,20.5,81.8,21.7z"
       id="path23" /><path
       class="st1"
       d="M110.2,21.8c0,0.9-0.1,1.7-0.4,2.4c-0.3,0.7-0.7,1.4-1.2,1.9c-0.5,0.5-1.1,0.9-1.9,1.2   c-0.7,0.3-1.5,0.4-2.4,0.4c-0.9,0-1.7-0.1-2.4-0.4c-0.7-0.3-1.3-0.7-1.9-1.2c-0.5-0.5-0.9-1.2-1.2-1.9c-0.3-0.7-0.4-1.5-0.4-2.4   c0-0.9,0.1-1.7,0.4-2.5s0.7-1.4,1.2-1.9c0.5-0.5,1.1-0.9,1.9-1.2c0.7-0.3,1.5-0.4,2.4-0.4c0.9,0,1.7,0.1,2.4,0.4   c0.7,0.3,1.4,0.7,1.9,1.2s0.9,1.2,1.2,1.9C110,20.1,110.2,20.9,110.2,21.8z M107.2,21.8c0-1.2-0.3-2.1-0.8-2.8   c-0.5-0.7-1.2-1-2.1-1c-0.6,0-1.1,0.1-1.5,0.4c-0.4,0.3-0.8,0.7-1,1.3c-0.2,0.6-0.4,1.3-0.4,2c0,0.8,0.1,1.4,0.4,2   c0.2,0.6,0.6,1,1,1.3c0.4,0.3,1,0.5,1.5,0.5c0.9,0,1.6-0.3,2.1-1C106.9,23.9,107.2,22.9,107.2,21.8z"
       id="path25" /><path
       class="st1"
       d="M115.3,17.4v0.4c0.5-0.7,1.1-1.2,1.7-1.5c0.6-0.3,1.3-0.5,2.1-0.5c0.8,0,1.5,0.2,2.1,0.5   c0.6,0.3,1.1,0.8,1.4,1.4c0.2,0.4,0.3,0.8,0.4,1.2c0.1,0.4,0.1,1,0.1,1.6V26c0,0.6-0.1,1-0.4,1.3c-0.3,0.3-0.6,0.5-1.1,0.5   c-0.4,0-0.8-0.2-1.1-0.5c-0.3-0.3-0.4-0.8-0.4-1.3V21c0-1-0.1-1.7-0.4-2.2c-0.3-0.5-0.8-0.8-1.6-0.8c-0.5,0-1,0.2-1.4,0.5   c-0.4,0.3-0.8,0.7-1,1.3c-0.1,0.4-0.2,1.3-0.2,2.5V26c0,0.6-0.1,1-0.4,1.3c-0.3,0.3-0.6,0.4-1.1,0.4c-0.4,0-0.8-0.2-1-0.5   s-0.4-0.8-0.4-1.3v-8.5c0-0.6,0.1-1,0.4-1.3c0.2-0.3,0.6-0.4,1-0.4c0.3,0,0.5,0.1,0.7,0.2c0.2,0.1,0.4,0.3,0.5,0.6   C115.2,16.7,115.3,17,115.3,17.4z"
       id="path27" /><path
       class="st1"
       d="M135.6,23.9c0,0.8-0.2,1.5-0.6,2.1s-1,1-1.8,1.3c-0.8,0.3-1.7,0.4-2.8,0.4c-1.1,0-2-0.2-2.7-0.5   s-1.3-0.7-1.7-1.2c-0.4-0.5-0.5-1-0.5-1.5c0-0.3,0.1-0.6,0.3-0.8c0.2-0.2,0.5-0.3,0.9-0.3c0.3,0,0.5,0.1,0.7,0.2s0.3,0.4,0.5,0.6   c0.3,0.5,0.7,0.9,1.1,1.2c0.4,0.3,1,0.4,1.7,0.4c0.6,0,1.1-0.1,1.5-0.4c0.4-0.3,0.6-0.6,0.6-0.9c0-0.5-0.2-0.9-0.6-1.1   c-0.4-0.2-1-0.5-1.9-0.7c-1-0.3-1.8-0.5-2.5-0.8c-0.6-0.3-1.1-0.6-1.5-1.1c-0.4-0.5-0.6-1-0.6-1.7c0-0.6,0.2-1.2,0.5-1.7   s0.9-0.9,1.6-1.3c0.7-0.3,1.5-0.5,2.5-0.5c0.8,0,1.5,0.1,2.1,0.2s1.1,0.4,1.5,0.6c0.4,0.3,0.7,0.6,0.9,0.9c0.2,0.3,0.3,0.6,0.3,1   c0,0.3-0.1,0.6-0.3,0.8c-0.2,0.2-0.6,0.3-1,0.3c-0.3,0-0.6-0.1-0.8-0.3c-0.2-0.2-0.5-0.4-0.7-0.8c-0.2-0.3-0.5-0.5-0.8-0.7   c-0.3-0.2-0.7-0.3-1.2-0.3c-0.5,0-1,0.1-1.3,0.3c-0.4,0.2-0.5,0.5-0.5,0.8c0,0.3,0.1,0.6,0.4,0.8c0.3,0.2,0.6,0.4,1,0.5   c0.4,0.1,1,0.3,1.8,0.5c0.9,0.2,1.7,0.5,2.2,0.8c0.6,0.3,1,0.7,1.3,1.1S135.6,23.4,135.6,23.9z"
       id="path29" /><path
       class="st1"
       d="M154.9,21.8c0,0.9-0.1,1.7-0.4,2.4c-0.3,0.7-0.7,1.4-1.2,1.9c-0.5,0.5-1.1,0.9-1.9,1.2   c-0.7,0.3-1.5,0.4-2.4,0.4c-0.9,0-1.7-0.1-2.4-0.4c-0.7-0.3-1.3-0.7-1.9-1.2c-0.5-0.5-0.9-1.2-1.2-1.9c-0.3-0.7-0.4-1.5-0.4-2.4   c0-0.9,0.1-1.7,0.4-2.5c0.3-0.7,0.7-1.4,1.2-1.9s1.1-0.9,1.9-1.2c0.7-0.3,1.5-0.4,2.4-0.4c0.9,0,1.7,0.1,2.4,0.4s1.4,0.7,1.9,1.2   c0.5,0.5,0.9,1.2,1.2,1.9S154.9,20.9,154.9,21.8z M151.9,21.8c0-1.2-0.3-2.1-0.8-2.8c-0.5-0.7-1.2-1-2.1-1c-0.6,0-1.1,0.1-1.5,0.4   c-0.4,0.3-0.8,0.7-1,1.3c-0.2,0.6-0.4,1.3-0.4,2c0,0.8,0.1,1.4,0.4,2c0.2,0.6,0.6,1,1,1.3c0.4,0.3,1,0.5,1.5,0.5   c0.9,0,1.6-0.3,2.1-1C151.7,23.9,151.9,22.9,151.9,21.8z"
       id="path31" /><path
       class="st1"
       d="M160.1,17.4v0.4c0.6-0.7,1.1-1.2,1.7-1.5s1.3-0.5,2-0.5c0.9,0,1.7,0.2,2.5,0.7s1.4,1.2,1.8,2.1   c0.4,0.9,0.7,2,0.7,3.2c0,0.9-0.1,1.7-0.4,2.5s-0.6,1.4-1.1,1.9c-0.4,0.5-1,0.9-1.6,1.2s-1.3,0.4-2,0.4c-0.8,0-1.6-0.2-2.1-0.5   s-1.1-0.8-1.6-1.5v4.4c0,1.3-0.5,1.9-1.4,1.9c-0.6,0-0.9-0.2-1.1-0.5c-0.2-0.3-0.3-0.8-0.3-1.5V17.4c0-0.6,0.1-1,0.4-1.3   c0.2-0.3,0.6-0.4,1-0.4c0.4,0,0.8,0.1,1,0.4C159.9,16.5,160.1,16.9,160.1,17.4z M165.9,21.7c0-0.8-0.1-1.4-0.4-2   c-0.2-0.6-0.6-1-1-1.3s-0.9-0.4-1.4-0.4c-0.8,0-1.5,0.3-2.1,1c-0.6,0.6-0.8,1.6-0.8,2.8c0,1.2,0.3,2.1,0.8,2.7c0.6,0.7,1.2,1,2.1,1   c0.5,0,0.9-0.1,1.4-0.4c0.4-0.3,0.8-0.7,1-1.3C165.7,23.2,165.9,22.5,165.9,21.7z"
       id="path33" /><path
       class="st1"
       d="M177.1,16h0.3v-1.8c0-0.5,0-0.8,0-1.1c0-0.3,0.1-0.5,0.2-0.7c0.1-0.2,0.3-0.4,0.5-0.5c0.2-0.1,0.5-0.2,0.7-0.2   c0.4,0,0.7,0.1,1,0.4c0.2,0.2,0.3,0.4,0.4,0.7s0.1,0.7,0.1,1.2v2h1.1c0.4,0,0.7,0.1,1,0.3c0.2,0.2,0.3,0.5,0.3,0.8   c0,0.4-0.2,0.7-0.5,0.8s-0.8,0.2-1.3,0.2h-0.6v5.4c0,0.5,0,0.8,0,1.1c0,0.2,0.1,0.5,0.3,0.6c0.1,0.2,0.4,0.2,0.7,0.2   c0.2,0,0.4,0,0.7-0.1c0.3-0.1,0.5-0.1,0.7-0.1c0.2,0,0.5,0.1,0.6,0.3c0.2,0.2,0.3,0.4,0.3,0.7c0,0.5-0.3,0.8-0.8,1.1   c-0.5,0.3-1.3,0.4-2.2,0.4c-0.9,0-1.6-0.2-2.1-0.5c-0.5-0.3-0.8-0.7-0.9-1.3c-0.1-0.5-0.2-1.3-0.2-2.2v-5.7H177   c-0.4,0-0.8-0.1-1-0.3c-0.2-0.2-0.3-0.5-0.3-0.8s0.1-0.6,0.4-0.8C176.3,16.1,176.7,16,177.1,16z"
       id="path35" /><path
       class="st1"
       d="M186.7,17.6l1.9,6.6l1.8-6.1c0.2-0.6,0.3-1.1,0.4-1.3s0.3-0.5,0.5-0.7c0.2-0.2,0.6-0.3,1-0.3   c0.4,0,0.8,0.1,1,0.3c0.2,0.2,0.4,0.4,0.5,0.7c0.1,0.2,0.2,0.7,0.4,1.3l1.8,6.1l1.9-6.6c0.1-0.5,0.2-0.8,0.3-1   c0.1-0.2,0.2-0.4,0.4-0.6s0.5-0.2,0.8-0.2s0.7,0.1,0.9,0.4c0.3,0.2,0.4,0.5,0.4,0.9c0,0.3-0.1,0.8-0.3,1.4l-2.4,7.1   c-0.2,0.6-0.4,1-0.5,1.3c-0.1,0.3-0.3,0.5-0.5,0.7c-0.2,0.2-0.6,0.3-1,0.3c-0.4,0-0.8-0.1-1.1-0.3c-0.3-0.2-0.4-0.5-0.6-0.8   c-0.1-0.3-0.3-0.7-0.4-1.3l-1.7-5.8l-1.6,5.8c-0.2,0.8-0.5,1.4-0.7,1.8c-0.3,0.4-0.7,0.6-1.3,0.6c-0.3,0-0.6-0.1-0.8-0.2   c-0.2-0.1-0.4-0.3-0.6-0.5s-0.3-0.5-0.4-0.8s-0.2-0.6-0.3-0.8l-2.4-7.1c-0.2-0.7-0.4-1.1-0.4-1.4c0-0.3,0.1-0.6,0.4-0.9   c0.3-0.3,0.6-0.4,0.9-0.4c0.5,0,0.8,0.1,1,0.4C186.4,16.4,186.5,16.9,186.7,17.6z"
       id="path37" /><path
       class="st1"
       d="M204.5,14.4c-0.4,0-0.8-0.1-1.1-0.4s-0.4-0.6-0.4-1.1c0-0.4,0.1-0.8,0.4-1c0.3-0.3,0.6-0.4,1-0.4   c0.4,0,0.7,0.1,1,0.4c0.3,0.2,0.4,0.6,0.4,1.1c0,0.5-0.1,0.8-0.4,1.1C205.2,14.3,204.9,14.4,204.5,14.4z M206,17.4V26   c0,0.6-0.1,1-0.4,1.3c-0.3,0.3-0.6,0.5-1.1,0.5s-0.8-0.2-1.1-0.5S203,26.5,203,26v-8.4c0-0.6,0.1-1,0.4-1.3s0.6-0.4,1.1-0.4   s0.8,0.1,1.1,0.4S206,16.9,206,17.4z"
       id="path39" /><path
       class="st1"
       d="M209.3,16h0.3v-1.8c0-0.5,0-0.8,0-1.1c0-0.3,0.1-0.5,0.2-0.7c0.1-0.2,0.3-0.4,0.5-0.5c0.2-0.1,0.5-0.2,0.7-0.2   c0.4,0,0.7,0.1,1,0.4c0.2,0.2,0.3,0.4,0.4,0.7s0.1,0.7,0.1,1.2v2h1.1c0.4,0,0.7,0.1,1,0.3c0.2,0.2,0.3,0.5,0.3,0.8   c0,0.4-0.2,0.7-0.5,0.8s-0.8,0.2-1.3,0.2h-0.6v5.4c0,0.5,0,0.8,0,1.1c0,0.2,0.1,0.5,0.3,0.6c0.1,0.2,0.4,0.2,0.7,0.2   c0.2,0,0.4,0,0.7-0.1c0.3-0.1,0.5-0.1,0.7-0.1c0.2,0,0.5,0.1,0.6,0.3c0.2,0.2,0.3,0.4,0.3,0.7c0,0.5-0.3,0.8-0.8,1.1   c-0.5,0.3-1.3,0.4-2.2,0.4c-0.9,0-1.6-0.2-2.1-0.5c-0.5-0.3-0.8-0.7-0.9-1.3c-0.1-0.5-0.2-1.3-0.2-2.2v-5.7h-0.4   c-0.4,0-0.8-0.1-1-0.3c-0.2-0.2-0.3-0.5-0.3-0.8s0.1-0.6,0.4-0.8C208.5,16.1,208.8,16,209.3,16z"
       id="path41" /><path
       class="st1"
       d="M217.2,16h0.3v-1.8c0-0.5,0-0.8,0-1.1c0-0.3,0.1-0.5,0.2-0.7c0.1-0.2,0.3-0.4,0.5-0.5c0.2-0.1,0.5-0.2,0.7-0.2   c0.4,0,0.7,0.1,1,0.4c0.2,0.2,0.3,0.4,0.4,0.7s0.1,0.7,0.1,1.2v2h1.1c0.4,0,0.7,0.1,1,0.3c0.2,0.2,0.3,0.5,0.3,0.8   c0,0.4-0.2,0.7-0.5,0.8s-0.8,0.2-1.3,0.2h-0.6v5.4c0,0.5,0,0.8,0,1.1c0,0.2,0.1,0.5,0.3,0.6c0.1,0.2,0.4,0.2,0.7,0.2   c0.2,0,0.4,0,0.7-0.1c0.3-0.1,0.5-0.1,0.7-0.1c0.2,0,0.5,0.1,0.6,0.3c0.2,0.2,0.3,0.4,0.3,0.7c0,0.5-0.3,0.8-0.8,1.1   c-0.5,0.3-1.3,0.4-2.2,0.4c-0.9,0-1.6-0.2-2.1-0.5c-0.5-0.3-0.8-0.7-0.9-1.3c-0.1-0.5-0.2-1.3-0.2-2.2v-5.7h-0.4   c-0.4,0-0.8-0.1-1-0.3c-0.2-0.2-0.3-0.5-0.3-0.8s0.1-0.6,0.4-0.8C216.5,16.1,216.8,16,217.2,16z"
       id="path43" /><path
       class="st1"
       d="M233.3,22.5h-5.8c0,0.7,0.1,1.3,0.4,1.8c0.3,0.5,0.6,0.9,1,1.2c0.4,0.3,0.9,0.4,1.4,0.4c0.4,0,0.7,0,1-0.1   c0.3-0.1,0.6-0.2,0.8-0.4c0.3-0.2,0.5-0.4,0.8-0.6c0.2-0.2,0.5-0.5,0.9-0.8c0.2-0.1,0.4-0.2,0.6-0.2c0.3,0,0.5,0.1,0.7,0.2   c0.2,0.2,0.3,0.4,0.3,0.7c0,0.3-0.1,0.6-0.3,0.9c-0.2,0.4-0.5,0.7-0.9,1s-1,0.6-1.6,0.8c-0.6,0.2-1.4,0.3-2.2,0.3   c-1.9,0-3.4-0.5-4.4-1.6s-1.6-2.5-1.6-4.4c0-0.9,0.1-1.7,0.4-2.4c0.3-0.7,0.6-1.4,1.1-1.9c0.5-0.5,1.1-0.9,1.8-1.2   c0.7-0.3,1.5-0.4,2.4-0.4c1.2,0,2.1,0.2,3,0.7c0.8,0.5,1.4,1.1,1.9,1.9c0.4,0.8,0.6,1.6,0.6,2.4c0,0.7-0.2,1.2-0.6,1.4   C234.6,22.4,234,22.5,233.3,22.5z M227.5,20.8h5.4c-0.1-1-0.3-1.8-0.8-2.3c-0.5-0.5-1.1-0.8-1.9-0.8c-0.7,0-1.3,0.3-1.8,0.8   C227.9,19.1,227.6,19.8,227.5,20.8z"
       id="path45" /><path
       class="st1"
       d="M241.2,23.5V26c0,0.6-0.1,1-0.4,1.3c-0.3,0.3-0.6,0.4-1.1,0.4c-0.4,0-0.8-0.2-1-0.5c-0.3-0.3-0.4-0.7-0.4-1.3   v-8.2c0-1.3,0.5-2,1.4-2c0.5,0,0.8,0.2,1.1,0.5c0.2,0.3,0.3,0.8,0.4,1.4c0.4-0.6,0.7-1.1,1.1-1.4c0.4-0.3,0.9-0.5,1.5-0.5   s1.2,0.2,1.8,0.5c0.6,0.3,0.9,0.7,0.9,1.2c0,0.4-0.1,0.7-0.4,0.9c-0.2,0.2-0.5,0.4-0.8,0.4c-0.1,0-0.4-0.1-0.8-0.2   c-0.4-0.1-0.8-0.2-1.1-0.2c-0.4,0-0.8,0.1-1.1,0.3c-0.3,0.2-0.5,0.6-0.6,1c-0.2,0.4-0.3,1-0.3,1.6S241.2,22.6,241.2,23.5z"
       id="path47" /></g></svg>